{"glyphs":{"0":{"ha":736,"x_min":56,"x_max":681,"o":"m 156 65 q 76 221 96 131 q 56 451 56 311 q 76 680 56 590 q 156 835 96 769 q 368 919 240 919 q 581 835 496 919 q 660 679 640 769 q 681 450 681 589 q 660 221 681 311 q 581 65 640 131 q 368 -19 496 -19 q 156 65 240 -19 m 276 735 q 233 450 233 668 q 276 165 233 232 q 368 114 306 114 q 460 165 431 114 q 503 450 503 232 q 460 735 503 668 q 368 786 431 786 q 276 735 306 786 z "},"1":{"ha":736,"x_min":65,"x_max":674,"o":"m 325 142 l 324 239 l 324 503 q 332 667 324 542 q 138 526 258 579 q 91 568 111 540 q 65 628 71 596 q 329 900 263 750 q 412 907 368 907 q 493 900 456 907 l 493 239 l 492 142 l 578 143 l 665 143 q 674 72 674 110 q 665 0 674 33 l 121 0 q 113 73 113 36 q 121 143 113 110 l 242 143 l 325 142 z "},"2":{"ha":736,"x_min":65,"x_max":667,"o":"m 667 149 q 663 83 667 113 q 554 -1 650 -1 l 129 -1 q 65 106 65 63 q 233 364 65 214 l 375 489 q 468 656 468 571 q 435 744 468 710 q 349 778 401 778 q 258 742 296 778 q 199 650 219 706 q 128 665 164 650 q 76 704 92 679 q 182 858 106 797 q 375 919 258 919 q 568 846 492 919 q 644 651 644 772 q 601 500 644 563 q 474 367 557 438 l 369 278 q 242 136 261 186 q 436 149 347 149 l 667 149 z "},"3":{"ha":736,"x_min":61,"x_max":668,"o":"m 600 721 l 469 583 q 422 543 450 564 q 599 467 531 535 q 668 270 668 400 q 573 60 668 140 q 346 -19 478 -19 q 61 76 172 -19 q 135 190 75 142 q 324 121 224 121 q 444 165 399 121 q 490 282 490 208 q 451 394 490 356 q 358 433 413 433 q 260 413 304 433 q 193 504 214 435 l 350 671 q 444 760 406 731 l 439 768 q 289 753 381 753 l 103 753 q 92 824 92 783 q 107 900 92 864 l 599 900 q 633 794 633 833 q 600 721 633 756 z "},"4":{"ha":736,"x_min":44,"x_max":694,"o":"m 560 179 l 561 96 l 561 0 q 477 -7 525 -7 q 394 0 429 -7 l 394 96 l 396 179 l 310 178 l 82 178 q 44 275 44 238 q 71 371 44 313 l 301 910 q 338 913 317 913 q 399 904 358 913 q 460 875 439 896 l 326 563 q 208 319 254 392 l 211 314 q 381 321 281 321 l 394 321 l 394 443 q 425 542 394 506 q 511 578 456 578 l 554 578 l 561 571 l 561 406 l 560 321 l 631 322 l 689 322 q 694 258 694 294 q 683 179 694 221 l 560 179 z "},"5":{"ha":736,"x_min":67,"x_max":664,"o":"m 617 900 q 628 829 628 869 q 553 754 628 754 l 281 754 l 281 699 l 275 613 l 271 582 q 375 600 322 600 q 586 521 508 600 q 664 308 664 442 q 567 65 664 150 q 321 -19 469 -19 q 67 72 172 -19 q 93 134 72 100 q 139 186 114 168 q 312 121 232 121 q 439 167 392 121 q 486 300 486 214 q 440 426 486 386 q 322 465 394 465 q 186 413 250 465 q 138 434 163 417 q 100 471 113 451 l 122 890 l 132 900 l 617 900 z "},"6":{"ha":736,"x_min":60,"x_max":681,"o":"m 681 304 q 681 230 681 304 q 594 68 681 156 q 371 -19 508 -19 q 128 114 206 -19 q 72 273 83 188 q 60 450 60 358 q 155 794 60 669 q 426 919 250 919 q 638 874 550 919 q 578 753 631 793 q 439 782 511 782 q 292 715 340 782 q 239 532 243 647 q 435 603 324 603 q 613 528 546 603 q 681 304 681 453 m 383 461 q 239 397 306 461 l 239 378 q 289 157 239 222 q 383 111 325 111 q 475 160 442 111 q 508 289 508 208 q 383 461 508 461 z "},"7":{"ha":736,"x_min":75,"x_max":679,"o":"m 90 900 l 649 900 q 679 799 679 836 q 654 725 679 761 l 604 656 q 451 372 506 513 q 381 56 397 231 l 376 0 q 290 -7 347 -7 q 200 0 233 -7 l 206 61 q 419 640 235 383 l 435 664 q 518 761 476 722 l 511 768 q 307 753 446 753 l 83 753 q 75 821 75 781 q 90 900 75 861 z "},"8":{"ha":736,"x_min":51,"x_max":685,"o":"m 51 228 q 95 365 51 303 q 208 465 139 426 q 75 679 75 543 q 158 851 75 782 q 370 919 242 919 q 579 853 499 919 q 660 683 660 788 q 623 567 660 619 q 526 485 586 515 q 685 238 685 396 q 590 50 683 119 q 358 -19 497 -19 q 135 47 219 -19 q 51 228 51 113 m 328 413 l 326 413 q 225 239 225 346 q 265 140 225 178 q 367 103 304 103 q 469 141 429 103 q 508 238 508 179 q 467 338 508 297 q 357 401 425 379 l 328 413 m 244 679 q 389 542 244 586 l 406 535 q 492 676 492 589 q 456 762 492 729 q 367 794 421 794 q 279 762 314 794 q 244 679 244 729 z "},"9":{"ha":736,"x_min":56,"x_max":676,"o":"m 56 596 q 56 670 56 596 q 142 832 56 744 q 365 919 228 919 q 608 786 531 919 q 665 627 653 713 q 676 450 676 542 q 581 106 676 231 q 310 -19 486 -19 q 99 26 186 -19 q 158 147 106 107 q 297 118 225 118 q 496 368 486 118 q 302 297 414 297 q 123 372 190 297 q 56 596 56 447 m 353 439 q 497 501 431 439 l 497 522 q 447 743 497 678 q 353 789 411 789 q 261 740 294 789 q 228 611 228 692 q 353 439 228 439 z "},"\u0000":{"ha":0,"x_min":0,"x_max":0,"o":""},"\r":{"ha":258,"x_min":0,"x_max":0,"o":""}," ":{"ha":306,"x_min":0,"x_max":0,"o":""},"!":{"ha":411,"x_min":100,"x_max":307,"o":"m 135 278 l 114 911 q 297 960 182 960 l 307 947 l 268 278 q 201 269 242 269 q 135 278 161 269 m 114 149 q 201 168 146 168 q 289 149 257 168 q 303 78 303 129 q 289 6 303 28 q 201 -14 257 -14 q 114 6 146 -14 q 100 78 100 31 q 114 149 100 125 z "},"\"":{"ha":574,"x_min":61,"x_max":513,"o":"m 348 893 q 340 934 348 893 q 332 996 332 975 q 342 1058 332 1017 q 424 1078 376 1078 q 503 1058 471 1078 q 513 995 513 1017 q 506 932 513 974 q 467 697 476 776 q 423 688 451 688 q 378 697 394 688 q 348 893 364 811 m 77 893 q 69 934 77 893 q 61 996 61 975 q 71 1058 61 1017 q 153 1078 106 1078 q 232 1058 200 1078 q 242 995 242 1017 q 233 932 242 974 q 196 697 206 776 q 152 688 181 688 q 107 697 124 688 q 77 893 93 811 z "},"#":{"ha":935,"x_min":31,"x_max":911,"o":"m 615 710 l 657 894 q 733 906 685 906 q 808 894 782 906 l 767 710 l 900 710 q 911 640 911 681 q 900 571 911 600 l 736 571 l 685 342 l 831 342 q 842 272 842 313 q 831 203 842 232 l 653 203 l 613 18 q 535 6 585 6 q 460 18 486 6 l 501 203 l 331 203 l 289 18 q 212 6 261 6 q 136 18 163 6 l 178 203 l 40 203 q 31 272 31 232 q 40 342 31 313 l 208 342 l 260 571 l 108 571 q 97 640 97 600 q 108 710 97 681 l 292 710 l 333 894 q 410 906 361 906 q 486 894 460 906 l 444 710 l 615 710 m 413 571 l 361 342 l 532 342 l 583 571 l 413 571 z "},"$":{"ha":699,"x_min":39,"x_max":653,"o":"m 39 135 q 60 208 40 168 q 106 264 81 247 q 356 188 250 188 q 440 208 407 188 q 472 267 472 229 q 385 360 472 326 l 250 408 q 72 618 72 475 q 129 767 72 706 q 282 844 186 828 l 282 957 q 346 963 303 963 q 413 957 389 963 l 413 846 q 629 786 515 836 q 569 651 629 704 q 353 706 439 706 q 278 685 306 706 q 250 634 250 665 q 270 587 250 603 q 333 556 290 571 l 465 507 q 653 278 653 436 q 586 123 653 185 q 407 50 519 61 l 407 -56 q 340 -60 381 -60 q 276 -56 299 -60 l 276 53 q 39 135 131 72 z "},"%":{"ha":1304,"x_min":65,"x_max":1240,"o":"m 1169 506 q 1240 274 1240 435 q 1169 42 1240 113 q 1013 -18 1111 -18 q 851 47 915 -18 q 786 274 786 113 q 851 500 786 435 q 1013 565 915 565 q 1169 506 1111 565 m 960 429 q 951 416 960 429 q 936 367 942 403 q 931 274 931 331 q 936 182 931 218 q 960 119 942 146 q 1014 92 979 92 q 1080 140 1063 92 q 1097 274 1097 189 q 1080 408 1097 360 q 1014 456 1063 456 q 960 429 979 456 m 129 448 q 97 480 129 448 q 65 675 65 513 q 129 902 65 838 q 291 967 193 967 q 453 901 389 967 q 518 674 518 836 q 453 448 518 513 q 291 383 389 383 q 129 448 193 383 m 226 808 q 217 784 226 808 q 208 675 208 760 q 226 542 208 590 q 292 493 243 493 q 358 542 340 493 q 375 675 375 590 q 358 808 375 760 q 292 857 340 857 q 226 808 243 857 m 307 0 l 831 949 q 919 957 865 957 q 997 949 974 957 l 474 0 q 385 -8 439 -8 q 307 0 331 -8 z "},"&":{"ha":883,"x_min":64,"x_max":867,"o":"m 444 574 l 706 574 q 844 599 790 574 q 867 517 867 568 q 751 428 867 428 l 714 428 q 715 342 715 394 l 715 215 q 724 0 715 114 q 644 -10 694 -10 q 564 -1 594 -10 l 551 57 q 331 -19 457 -19 q 135 56 206 -19 q 64 238 64 132 q 117 413 64 343 q 246 507 169 483 q 143 587 182 529 q 104 718 104 644 q 184 898 104 828 q 405 968 264 968 q 669 925 546 968 q 669 917 669 921 q 625 792 669 843 q 431 829 504 829 q 322 794 357 829 q 286 704 286 760 q 444 574 286 574 m 544 340 q 546 428 544 396 l 429 428 q 292 381 338 428 q 246 264 246 335 q 281 156 246 193 q 376 118 317 118 q 544 178 474 118 l 544 340 z "},"'":{"ha":310,"x_min":58,"x_max":239,"o":"m 74 893 q 66 934 74 893 q 58 996 58 975 q 68 1058 58 1017 q 150 1078 103 1078 q 229 1058 197 1078 q 239 995 239 1017 q 231 932 239 974 q 193 697 203 776 q 149 688 178 688 q 104 697 121 688 q 74 893 90 811 z "},"(":{"ha":483,"x_min":85,"x_max":460,"o":"m 315 776 q 291 696 315 776 q 267 450 267 615 q 315 122 267 285 q 460 -168 364 -40 q 360 -260 431 -235 q 157 61 229 -135 q 85 449 85 257 q 157 838 85 642 q 360 1158 229 1033 q 460 1067 429 1136 q 315 776 364 938 z "},")":{"ha":483,"x_min":24,"x_max":399,"o":"m 168 122 q 192 203 168 122 q 217 450 217 285 q 168 776 217 615 q 24 1067 119 938 q 125 1158 56 1138 q 327 838 256 1033 q 399 450 399 643 q 327 61 399 257 q 125 -260 256 -135 q 24 -168 54 -235 q 168 122 119 -40 z "},"*":{"ha":710,"x_min":57,"x_max":651,"o":"m 57 746 q 69 817 56 774 q 103 883 83 861 l 179 856 q 314 779 222 840 q 285 932 286 879 l 282 1014 q 353 1025 307 1025 q 426 1014 400 1025 l 424 932 q 394 781 422 881 q 529 854 468 832 l 607 882 q 638 817 624 861 q 651 746 653 774 l 572 722 q 419 704 521 707 q 532 599 497 642 l 581 533 q 530 483 567 510 q 465 450 493 456 l 419 517 q 354 656 386 565 q 288 518 317 557 l 243 450 q 178 483 215 457 q 126 535 140 510 l 176 599 q 289 704 207 639 q 136 724 193 707 l 57 746 z "},"+":{"ha":736,"x_min":69,"x_max":667,"o":"m 293 481 l 292 560 l 292 710 q 369 717 324 717 q 444 710 414 717 l 444 560 q 443 481 444 560 l 521 482 l 660 482 q 667 408 667 450 q 660 339 667 367 l 521 339 l 443 340 l 444 264 l 444 113 q 368 106 414 106 q 292 113 322 106 l 292 264 l 293 340 l 215 339 l 76 339 q 69 410 69 367 q 76 482 69 454 l 215 482 l 293 481 z "},",":{"ha":388,"x_min":39,"x_max":306,"o":"m 289 157 q 306 58 306 113 q 248 -119 306 -37 q 83 -235 190 -200 q 51 -202 61 -224 q 40 -168 40 -181 q 40 -151 40 -156 q 123 -94 90 -131 q 161 -11 156 -57 q 103 8 124 -6 q 89 86 89 39 q 103 157 89 133 q 199 178 142 178 q 289 157 257 178 z "},"-":{"ha":500,"x_min":61,"x_max":439,"o":"m 432 300 l 69 300 q 61 372 61 328 q 69 443 61 415 l 432 443 q 439 372 439 414 q 432 300 439 329 z "},".":{"ha":378,"x_min":81,"x_max":297,"o":"m 94 8 q 81 83 81 36 q 94 158 81 129 q 190 179 132 179 q 283 158 249 179 q 297 83 297 129 q 283 8 297 36 q 190 -12 253 -12 q 94 8 128 -12 z "},"/":{"ha":601,"x_min":7,"x_max":592,"o":"m 7 -103 l 444 1061 q 592 1006 532 1051 l 154 -158 q 7 -103 67 -151 z "},":":{"ha":388,"x_min":85,"x_max":301,"o":"m 99 8 q 85 83 85 36 q 99 158 85 129 q 194 179 136 179 q 288 158 253 179 q 301 83 301 129 q 288 8 301 36 q 194 -12 256 -12 q 99 8 132 -12 m 99 454 q 85 528 85 482 q 99 604 85 575 q 194 625 136 625 q 288 604 253 625 q 301 528 301 575 q 288 454 301 482 q 194 433 256 433 q 99 454 132 433 z "},";":{"ha":393,"x_min":38,"x_max":304,"o":"m 288 157 q 304 58 304 113 q 247 -119 304 -37 q 82 -235 189 -200 q 49 -202 60 -224 q 39 -168 39 -181 q 39 -151 39 -156 q 122 -94 89 -131 q 160 -11 154 -57 q 101 8 122 -6 q 88 86 88 39 q 101 157 88 133 q 198 178 140 178 q 288 157 256 178 m 101 454 q 88 528 88 482 q 101 604 88 575 q 197 625 139 625 q 290 604 256 625 q 304 528 304 575 q 290 454 304 482 q 197 433 258 433 q 101 454 135 433 z "},"<":{"ha":736,"x_min":64,"x_max":657,"o":"m 74 476 l 579 754 q 633 699 611 736 q 657 619 656 661 l 357 464 q 249 415 299 435 l 249 406 q 357 357 299 386 l 657 200 q 631 120 654 158 q 578 65 608 82 l 74 343 q 64 411 64 378 q 74 476 64 444 z "},"=":{"ha":736,"x_min":69,"x_max":667,"o":"m 660 197 l 76 197 q 69 269 69 226 q 76 340 69 311 l 660 340 q 667 269 667 311 q 660 197 667 226 m 660 485 l 76 485 q 69 556 69 513 q 76 628 69 599 l 660 628 q 667 556 667 599 q 660 485 667 513 z "},">":{"ha":736,"x_min":79,"x_max":672,"o":"m 663 344 l 157 67 q 103 123 125 86 q 79 201 81 160 l 379 357 q 488 406 419 379 l 488 415 q 379 464 438 435 l 79 621 q 105 701 82 663 q 158 756 128 739 l 663 478 q 672 410 672 443 q 663 344 672 376 z "},"?":{"ha":563,"x_min":10,"x_max":553,"o":"m 10 893 q 276 968 143 968 q 481 901 408 968 q 553 725 553 835 q 371 453 553 551 l 285 407 l 274 279 q 208 269 244 269 q 142 279 171 269 l 133 486 l 147 504 l 218 538 q 371 707 371 614 q 338 788 371 758 q 235 818 304 818 q 72 768 167 818 q 30 824 49 788 q 10 893 11 860 m 121 146 q 210 165 156 165 q 297 146 265 165 q 311 75 311 122 q 297 3 311 28 q 210 -17 261 -17 q 121 3 160 -17 q 108 76 108 26 q 121 146 108 125 z "},"@":{"ha":1335,"x_min":64,"x_max":1282,"o":"m 939 572 l 938 222 q 950 156 938 176 q 992 136 963 136 q 1078 201 1043 136 q 1113 411 1113 267 q 997 708 1113 597 q 684 818 882 818 q 361 676 486 818 q 236 313 236 533 q 344 -22 236 93 q 640 -137 453 -137 q 918 -86 785 -137 q 963 -204 963 -133 q 628 -269 804 -269 q 218 -121 372 -269 q 64 307 64 28 q 240 766 64 586 q 684 946 417 946 q 1117 799 951 946 q 1282 406 1282 653 q 1194 112 1282 215 q 988 8 1107 8 q 811 92 869 8 q 618 3 722 3 q 455 88 514 3 q 396 322 396 172 q 473 572 396 472 q 686 671 550 671 q 827 642 758 671 q 939 572 896 614 m 658 135 q 776 203 718 135 l 776 514 q 681 549 739 549 q 592 485 622 549 q 563 321 563 422 q 658 135 563 135 z "},"A":{"ha":864,"x_min":21,"x_max":842,"o":"m 593 218 l 521 217 l 328 217 l 257 218 l 189 -1 q 110 -8 161 -8 q 28 4 58 -8 l 21 13 l 332 949 q 438 956 378 956 q 535 947 497 956 l 842 11 q 749 -11 801 -11 q 674 9 697 -11 q 635 83 651 29 l 593 218 m 300 360 l 365 361 l 489 361 q 516 360 493 361 q 550 360 539 360 l 503 515 q 428 781 464 639 l 421 781 q 361 556 404 696 l 300 360 z "},"B":{"ha":846,"x_min":118,"x_max":785,"o":"m 128 950 q 428 956 336 956 q 660 891 579 956 q 740 704 740 826 q 705 586 740 639 q 613 510 669 533 q 735 420 686 488 q 785 268 785 353 q 699 66 785 139 q 447 -7 613 -7 q 128 -1 347 -7 l 118 7 l 118 942 l 128 950 m 293 122 l 442 124 q 569 169 532 124 q 606 276 606 215 q 566 385 606 338 q 435 432 526 432 l 293 432 l 293 122 m 293 826 l 293 564 l 421 564 q 533 602 500 564 q 565 694 565 640 q 422 825 565 825 q 293 826 333 825 z "},"C":{"ha":842,"x_min":61,"x_max":794,"o":"m 625 601 q 625 613 625 607 q 584 763 625 700 q 447 826 543 826 q 247 469 247 826 q 303 222 247 308 q 467 135 360 135 q 706 238 574 135 q 758 185 733 218 q 790 124 783 153 q 632 21 728 61 q 433 -19 536 -19 q 257 22 331 -19 q 142 136 183 64 q 61 471 61 274 q 172 842 61 717 q 443 968 282 968 q 699 887 604 968 q 794 690 794 806 q 694 592 794 592 q 625 601 658 592 z "},"D":{"ha":911,"x_min":118,"x_max":847,"o":"m 697 885 q 816 714 785 814 q 847 474 847 614 q 816 234 847 335 q 697 63 785 133 q 584 10 654 28 q 442 -7 514 -7 q 128 -1 369 -7 l 118 7 l 118 942 l 128 950 q 450 956 288 956 q 584 938 514 956 q 697 885 654 919 m 628 247 q 639 273 628 247 q 658 353 650 300 q 665 474 665 407 q 658 595 665 542 q 628 702 650 649 q 561 785 607 756 q 433 815 515 815 q 294 817 351 815 l 294 133 l 449 133 q 561 163 515 133 q 628 247 607 193 z "},"E":{"ha":790,"x_min":117,"x_max":731,"o":"m 292 226 l 290 144 q 386 147 349 147 l 731 147 q 728 82 731 104 q 614 -3 713 -3 l 218 -3 q 144 26 171 -3 q 117 104 117 54 l 117 939 l 126 949 l 700 949 q 707 880 707 915 q 693 800 707 844 l 290 800 l 292 706 l 292 550 q 381 551 325 551 l 622 551 q 632 478 632 518 q 622 406 632 439 l 381 406 q 292 407 325 406 l 292 226 z "},"F":{"ha":732,"x_min":118,"x_max":703,"o":"m 293 799 l 294 657 l 294 549 l 617 549 q 625 476 625 515 q 617 403 625 436 l 294 403 l 294 0 q 206 -7 258 -7 q 118 0 154 -7 l 118 940 l 128 949 l 694 949 q 703 879 703 919 q 606 797 703 797 l 414 797 q 293 799 329 797 z "},"G":{"ha":900,"x_min":61,"x_max":818,"o":"m 481 514 l 696 515 q 699 515 697 515 q 818 403 818 515 l 818 40 q 458 -19 656 -19 q 161 115 261 -19 q 61 480 61 249 q 185 840 61 711 q 490 968 310 968 q 815 867 669 968 q 787 793 811 829 q 733 738 763 757 q 497 819 617 819 q 310 734 376 819 q 243 467 243 649 q 496 124 243 124 q 650 142 569 124 l 650 274 q 653 365 650 336 l 551 365 q 488 383 508 365 q 468 438 468 400 q 481 514 468 476 z "},"H":{"ha":943,"x_min":118,"x_max":825,"o":"m 650 563 l 649 665 l 649 949 q 737 956 683 956 q 825 949 790 956 l 825 0 q 736 -7 789 -7 q 649 0 683 -7 l 649 313 l 650 415 l 575 414 l 368 414 l 293 415 l 294 313 l 294 0 q 206 -7 260 -7 q 118 0 151 -7 l 118 949 q 206 956 151 956 q 294 949 260 956 l 294 665 l 293 563 l 368 564 l 575 564 l 650 563 z "},"I":{"ha":421,"x_min":122,"x_max":299,"o":"m 122 0 l 122 949 q 210 956 156 956 q 299 949 264 956 l 299 0 q 210 -7 264 -7 q 122 0 156 -7 z "},"J":{"ha":635,"x_min":14,"x_max":533,"o":"m 78 178 q 222 133 150 133 q 325 181 294 133 q 356 332 356 228 l 356 949 q 444 956 390 956 q 533 949 499 956 l 533 353 q 447 54 533 135 q 242 -14 375 -14 q 14 46 110 -14 q 78 178 28 124 z "},"K":{"ha":842,"x_min":118,"x_max":824,"o":"m 824 44 q 706 -10 786 -10 q 635 14 658 -10 q 593 94 613 38 l 528 282 q 467 385 501 356 q 376 415 433 415 q 294 413 364 415 l 294 0 q 206 -7 260 -7 q 118 0 151 -7 l 118 949 q 206 956 151 956 q 294 949 260 956 l 294 564 l 356 565 q 389 574 378 565 q 413 607 400 582 l 574 888 q 613 939 593 924 q 678 954 633 954 q 775 950 722 954 l 786 936 l 592 594 q 528 513 565 546 q 628 460 593 500 q 690 347 664 419 l 758 157 q 824 44 786 78 z "},"L":{"ha":717,"x_min":117,"x_max":682,"o":"m 419 150 l 682 150 q 678 83 682 104 q 563 -3 663 -3 l 219 -3 q 144 26 172 -3 q 117 104 117 54 l 117 947 l 126 956 l 192 956 q 269 929 244 956 q 294 843 294 903 l 294 146 q 419 150 361 150 z "},"M":{"ha":1136,"x_min":92,"x_max":1043,"o":"m 92 3 l 165 947 q 283 956 213 956 q 397 947 353 956 l 510 550 q 564 317 547 418 l 572 317 q 626 550 589 418 l 739 947 q 854 956 786 956 q 969 947 922 956 l 1043 3 q 959 -7 1008 -7 q 875 -1 910 -7 l 847 460 q 836 757 839 588 l 828 757 l 658 143 q 567 136 614 136 q 478 143 519 136 l 308 757 l 300 757 q 289 460 293 550 l 260 -1 q 176 -7 226 -7 q 92 3 126 -7 z "},"N":{"ha":953,"x_min":118,"x_max":835,"o":"m 826 956 l 835 947 l 835 3 q 733 -7 796 -7 q 624 0 671 -7 l 358 550 q 274 743 324 621 l 268 742 q 282 372 282 568 l 282 0 q 199 -7 246 -7 q 118 0 153 -7 l 118 946 q 219 956 157 956 q 326 949 281 956 l 589 400 q 681 196 625 325 l 685 197 q 671 569 671 394 l 671 847 q 693 931 671 906 q 768 956 715 956 l 826 956 z "},"O":{"ha":918,"x_min":61,"x_max":857,"o":"m 459 829 q 352 829 459 829 q 246 474 246 829 q 459 119 246 119 q 672 474 672 119 q 459 829 672 829 m 210 65 q 61 474 61 192 q 210 883 61 757 q 458 968 311 968 q 710 883 606 968 q 857 474 857 757 q 710 65 857 192 q 458 -19 606 -19 q 210 65 311 -19 z "},"P":{"ha":800,"x_min":118,"x_max":754,"o":"m 428 956 q 665 874 575 956 q 754 640 754 793 q 665 403 754 486 q 428 321 575 321 l 294 321 l 294 0 q 206 -7 260 -7 q 118 0 151 -7 l 118 942 l 128 950 q 428 956 347 956 m 294 818 l 294 456 q 417 458 389 458 q 538 512 503 458 q 572 638 572 565 q 538 764 572 711 q 420 817 503 817 q 294 818 338 817 z "},"Q":{"ha":917,"x_min":61,"x_max":858,"o":"m 619 -142 l 469 -19 l 460 -19 q 208 64 308 -19 q 61 476 61 192 q 208 885 61 760 q 456 968 306 968 q 707 885 607 968 q 853 474 853 758 q 735 96 853 218 q 650 36 696 53 l 682 14 q 858 -60 782 -58 q 823 -152 857 -118 q 731 -186 789 -186 q 619 -142 672 -186 m 457 829 q 351 829 457 829 q 244 475 244 829 q 457 121 244 121 q 669 475 669 121 q 457 829 669 829 z "},"R":{"ha":842,"x_min":118,"x_max":810,"o":"m 764 664 q 713 503 764 571 q 589 410 663 436 q 690 289 657 386 l 744 143 q 810 43 771 72 q 690 -11 771 -11 q 622 13 644 -11 q 579 94 599 38 l 517 265 q 470 342 499 315 q 385 368 442 368 l 293 368 l 293 0 q 205 -7 258 -7 q 118 0 151 -7 l 118 942 l 128 950 q 439 956 347 956 q 676 881 588 956 q 764 664 764 806 m 293 819 l 293 507 q 428 510 393 510 q 582 664 582 510 q 428 818 582 818 q 293 819 338 818 z "},"S":{"ha":772,"x_min":33,"x_max":724,"o":"m 33 85 q 106 218 43 167 q 385 126 250 126 q 497 158 457 126 q 538 242 538 190 q 426 374 540 324 l 263 443 q 69 690 69 529 q 161 889 69 810 q 401 968 253 968 q 699 893 549 968 q 638 757 694 811 q 394 824 504 824 q 288 791 326 824 q 250 713 250 758 q 351 601 250 644 l 515 532 q 724 267 724 442 q 633 60 724 139 q 366 -19 543 -19 q 33 85 189 -19 z "},"T":{"ha":693,"x_min":13,"x_max":686,"o":"m 435 803 l 436 700 l 436 0 q 347 -7 400 -7 q 260 0 294 -7 l 260 803 l 176 801 l 19 801 q 13 874 13 833 q 19 949 13 915 l 676 949 q 686 876 686 914 q 663 819 686 838 q 590 801 640 801 l 519 801 l 436 803 l 435 803 z "},"U":{"ha":932,"x_min":106,"x_max":826,"o":"m 826 949 l 826 340 q 731 74 826 168 q 466 -19 635 -19 q 201 74 297 -19 q 106 340 106 168 l 106 947 l 114 956 l 181 956 q 258 928 233 956 q 282 843 282 901 l 282 339 q 465 122 282 122 q 649 339 649 122 l 649 949 q 738 956 683 956 q 826 949 792 956 z "},"V":{"ha":815,"x_min":22,"x_max":797,"o":"m 425 153 l 632 949 q 707 956 661 956 q 789 944 753 956 l 797 933 l 528 0 q 406 -7 474 -7 q 310 10 339 -7 q 268 75 282 26 l 22 933 q 126 960 83 960 q 190 940 168 960 q 225 872 213 919 l 354 413 q 413 168 376 335 q 425 153 415 153 z "},"W":{"ha":1210,"x_min":33,"x_max":1175,"o":"m 204 76 l 33 939 q 128 960 82 960 q 196 939 175 960 q 225 864 217 918 l 301 436 q 336 218 328 285 q 347 149 344 151 q 356 147 349 147 l 493 929 q 608 938 544 938 q 721 929 672 938 l 847 164 q 851 150 849 153 q 861 147 854 147 q 907 438 876 274 l 1003 949 q 1081 956 1035 956 q 1167 944 1126 956 l 1175 933 l 982 1 q 850 -7 919 -7 q 753 10 781 -7 q 719 76 726 26 l 660 421 q 610 756 622 660 l 600 756 q 546 421 575 579 l 469 1 q 338 -7 406 -7 q 242 10 269 -7 q 204 76 214 26 z "},"X":{"ha":831,"x_min":19,"x_max":811,"o":"m 611 949 q 690 956 642 956 q 778 940 738 956 l 782 931 l 518 500 l 811 28 q 692 -11 756 -11 q 582 58 628 -11 l 403 349 l 193 0 q 117 -7 165 -7 q 25 8 68 -7 l 19 19 l 313 493 l 49 921 q 153 960 104 960 q 226 944 201 960 q 276 890 251 929 l 429 644 l 611 949 z "},"Y":{"ha":719,"x_min":6,"x_max":715,"o":"m 435 663 l 549 949 q 625 956 578 956 q 707 943 672 956 l 715 932 l 449 297 l 449 0 q 360 -7 414 -7 q 272 0 306 -7 l 272 303 l 6 928 q 107 960 63 960 q 172 943 151 960 q 210 886 193 926 l 303 658 q 363 475 338 569 l 371 475 q 435 663 389 549 z "},"Z":{"ha":790,"x_min":61,"x_max":729,"o":"m 83 179 l 418 667 q 528 810 443 704 l 524 814 q 308 801 444 801 l 94 801 q 88 865 88 828 q 100 949 88 903 l 689 949 q 714 831 714 858 q 692 771 714 803 l 358 288 q 250 146 324 233 l 254 142 q 438 150 371 150 l 556 150 q 717 178 654 150 q 729 96 729 138 q 611 0 729 0 l 82 0 q 61 115 61 83 q 83 179 61 147 z "},"[":{"ha":506,"x_min":138,"x_max":461,"o":"m 454 -204 l 149 -215 l 138 -206 l 138 1129 l 149 1139 l 454 1128 q 461 1078 461 1113 q 447 1007 461 1044 l 307 1003 l 307 -79 l 447 -83 q 461 -155 461 -121 q 454 -204 461 -189 z "},"\\":{"ha":601,"x_min":10,"x_max":596,"o":"m 447 -158 l 10 1006 q 158 1061 72 1051 l 596 -103 q 447 -158 536 -149 z "},"]":{"ha":506,"x_min":44,"x_max":368,"o":"m 357 -215 l 50 -204 q 44 -153 44 -187 q 57 -83 44 -118 l 197 -79 l 197 1003 l 57 1007 q 44 1076 44 1042 q 50 1128 44 1111 l 357 1139 l 368 1129 l 368 -206 l 357 -215 z "},"^":{"ha":736,"x_min":53,"x_max":683,"o":"m 683 425 q 599 417 650 417 q 517 425 547 417 l 421 639 q 374 768 406 676 l 363 768 q 315 639 331 676 l 219 425 q 164 417 189 417 q 53 425 86 417 l 276 900 q 370 908 310 908 q 460 900 431 908 l 683 425 z "},"_":{"ha":754,"x_min":-8,"x_max":763,"o":"m 756 -228 l -1 -228 q -8 -162 -8 -200 q -1 -96 -8 -124 l 756 -96 q 763 -162 763 -124 q 756 -228 763 -200 z "},"`":{"ha":553,"x_min":82,"x_max":401,"o":"m 194 1043 l 401 817 q 371 774 392 793 q 328 749 350 756 l 82 936 q 127 1001 94 971 q 194 1043 160 1032 z "},"a":{"ha":707,"x_min":53,"x_max":653,"o":"m 653 78 q 628 28 646 54 q 593 -11 611 3 q 467 69 507 -1 q 268 -19 375 -19 q 107 43 161 -19 q 53 188 53 106 q 128 363 53 304 q 322 422 204 422 q 443 417 386 422 l 443 458 q 338 568 443 568 q 125 518 263 568 q 79 642 85 561 q 379 704 229 704 q 549 646 483 704 q 614 469 614 588 l 614 186 q 653 78 614 110 m 304 113 q 443 179 376 113 l 443 303 q 338 308 394 308 q 251 279 281 308 q 222 206 222 250 q 244 137 222 161 q 304 113 267 113 z "},"b":{"ha":738,"x_min":99,"x_max":685,"o":"m 442 701 q 621 606 558 701 q 683 345 683 511 q 594 84 683 179 q 361 -11 504 -11 q 99 35 218 -11 l 99 1013 l 108 1022 l 172 1022 q 245 998 224 1022 q 267 915 267 974 l 267 639 q 442 701 347 701 m 396 561 q 267 496 324 561 l 267 126 q 361 114 311 114 q 469 176 431 114 q 508 351 508 238 q 396 561 508 558 z "},"c":{"ha":656,"x_min":54,"x_max":611,"o":"m 454 407 q 454 424 454 415 q 433 535 454 493 q 349 578 411 578 q 231 348 231 578 q 374 118 231 118 q 536 185 446 118 q 578 142 558 171 q 604 85 597 113 q 351 -19 500 -19 q 128 81 203 -19 q 54 353 54 181 q 142 617 54 525 q 350 708 229 708 q 541 644 471 708 q 611 490 611 579 q 525 400 611 400 q 454 407 493 400 z "},"d":{"ha":740,"x_min":54,"x_max":679,"o":"m 297 -19 q 238 -19 297 -19 q 117 77 179 -19 q 54 342 54 174 q 134 606 54 510 q 326 701 214 701 q 472 663 397 701 l 472 1013 l 481 1022 l 547 1022 q 619 998 599 1022 q 640 915 640 974 l 640 197 q 679 78 640 111 q 655 28 672 54 q 619 -11 638 3 q 496 72 532 1 q 297 -19 414 -19 m 340 122 q 472 197 417 122 l 472 525 q 349 568 401 568 q 263 508 296 568 q 231 338 231 447 q 261 175 231 228 q 340 122 292 122 z "},"e":{"ha":693,"x_min":54,"x_max":633,"o":"m 619 289 l 231 289 q 267 162 235 207 q 382 117 300 117 q 564 165 464 117 q 614 60 603 128 q 347 -19 503 -19 q 122 82 190 -19 q 54 344 54 183 q 129 607 54 506 q 344 708 204 708 q 558 624 483 708 q 633 413 633 540 q 619 289 633 349 m 351 583 q 229 411 238 583 l 471 411 l 471 428 q 442 540 471 497 q 351 583 413 583 z "},"f":{"ha":476,"x_min":7,"x_max":533,"o":"m 133 0 l 133 568 l 14 565 q 7 626 7 597 q 14 690 7 656 l 125 689 q 117 801 117 764 q 178 964 117 900 q 340 1028 239 1028 q 533 993 440 1028 q 494 878 533 919 q 382 897 431 897 q 307 869 333 897 q 281 792 281 842 q 289 688 281 742 l 479 690 q 486 626 486 664 q 479 565 486 589 l 301 568 l 301 0 q 216 -7 257 -7 q 133 0 175 -7 z "},"g":{"ha":738,"x_min":54,"x_max":681,"o":"m 300 -12 q 117 83 179 -12 q 54 348 54 179 q 133 613 54 517 q 324 708 213 708 q 511 639 435 708 q 621 699 551 690 q 658 660 640 686 q 681 611 675 633 q 642 492 642 578 l 642 97 q 569 -215 642 -124 q 332 -307 497 -307 q 83 -260 203 -307 q 126 -133 83 -183 q 313 -176 222 -176 q 439 -131 404 -176 q 474 -3 474 -85 l 474 53 q 300 -12 394 -12 m 474 196 l 474 518 q 354 575 413 575 q 263 515 296 575 q 231 344 231 456 q 260 181 231 233 q 339 128 290 128 q 474 196 414 128 z "},"h":{"ha":754,"x_min":99,"x_max":689,"o":"m 661 465 l 661 157 q 689 26 661 72 q 588 -10 646 -10 q 510 17 531 -10 q 489 99 489 43 l 489 428 q 473 519 489 492 q 414 546 457 546 q 267 474 335 546 l 267 0 q 184 -7 228 -7 q 99 0 140 -7 l 99 1013 l 108 1022 l 174 1022 q 247 998 226 1022 q 267 915 267 974 l 267 614 q 465 700 365 700 q 613 635 565 700 q 661 465 661 571 z "},"i":{"ha":392,"x_min":36,"x_max":294,"o":"m 294 554 l 294 0 q 210 -7 256 -7 q 122 0 164 -7 l 122 490 q 60 565 122 565 l 43 565 q 36 625 36 589 q 43 688 36 661 q 144 693 93 693 l 167 693 q 260 656 226 693 q 294 554 294 618 m 93 814 q 79 883 79 846 q 93 951 79 919 q 183 971 129 971 q 268 951 236 971 q 282 883 282 919 q 268 814 282 846 q 178 794 236 794 q 93 814 121 794 z "},"j":{"ha":400,"x_min":29,"x_max":304,"o":"m 304 554 l 304 31 q 287 -143 304 -90 q 244 -222 269 -196 q 78 -306 193 -279 q 29 -200 36 -268 q 111 -136 89 -171 q 133 -29 133 -101 l 133 490 q 71 565 133 565 l 42 565 q 35 625 35 589 q 42 688 35 661 q 156 693 97 693 l 179 693 q 271 656 238 693 q 304 554 304 619 m 100 814 q 86 883 86 846 q 100 951 86 919 q 190 971 136 971 q 275 951 243 971 q 289 883 289 919 q 275 814 289 846 q 185 794 243 794 q 100 814 128 794 z "},"k":{"ha":708,"x_min":99,"x_max":690,"o":"m 582 265 l 624 156 q 690 43 654 68 q 575 -10 643 -10 q 515 10 535 -10 q 476 76 494 29 l 426 207 q 385 274 407 257 q 333 290 364 290 q 267 288 303 290 l 267 0 q 184 -7 228 -7 q 99 0 140 -7 l 99 1013 l 108 1022 l 174 1022 q 247 998 226 1022 q 267 915 267 974 l 267 431 l 304 432 q 340 454 325 432 l 442 625 q 544 693 481 693 q 640 692 608 693 l 649 681 l 514 453 q 458 389 489 410 q 582 265 543 363 z "},"l":{"ha":418,"x_min":97,"x_max":382,"o":"m 322 128 l 368 128 q 382 54 382 86 q 378 6 382 22 q 247 -7 297 -7 q 97 156 97 -7 l 97 1013 l 106 1022 l 172 1022 q 244 998 224 1022 q 265 915 265 974 l 265 190 q 322 128 265 128 z "},"m":{"ha":1114,"x_min":99,"x_max":1047,"o":"m 472 428 q 397 546 472 546 q 271 476 336 546 l 271 0 q 186 -7 232 -7 q 99 0 140 -7 l 99 686 l 108 696 l 172 696 q 268 610 253 696 q 469 701 364 701 q 621 601 574 701 q 839 701 728 701 q 973 640 926 701 q 1019 482 1019 579 l 1019 157 q 1047 26 1019 72 q 947 -10 1004 -10 q 868 17 889 -10 q 847 99 847 43 l 847 429 q 771 546 847 546 q 644 474 713 546 l 644 0 q 560 -7 606 -7 q 472 0 514 -7 l 472 428 z "},"n":{"ha":758,"x_min":99,"x_max":693,"o":"m 665 465 l 665 157 q 693 26 665 72 q 591 -10 647 -10 q 514 17 535 -10 q 493 99 493 43 l 493 429 q 476 519 493 492 q 417 546 460 546 q 271 476 338 546 l 271 0 q 186 -7 232 -7 q 99 0 140 -7 l 99 688 l 108 696 l 172 696 q 267 613 251 696 q 469 701 368 701 q 617 636 569 701 q 665 465 665 571 z "},"o":{"ha":724,"x_min":54,"x_max":669,"o":"m 571 629 q 669 344 669 531 q 571 60 669 158 q 362 -19 492 -19 q 153 60 232 -19 q 54 344 54 158 q 153 629 54 531 q 362 708 232 708 q 571 629 492 708 m 362 578 q 296 578 362 578 q 231 344 231 578 q 362 111 231 111 q 493 344 493 111 q 362 578 493 578 z "},"p":{"ha":740,"x_min":99,"x_max":686,"o":"m 449 708 q 505 708 449 708 q 624 612 561 708 q 686 347 686 515 q 607 83 686 179 q 415 -12 528 -12 q 268 26 343 -12 l 268 -193 q 247 -276 268 -251 q 174 -300 226 -300 l 108 -300 l 99 -290 l 99 688 l 108 696 l 157 696 q 256 628 229 696 q 449 708 336 708 m 400 567 q 268 492 324 567 l 268 163 q 390 119 335 119 q 477 180 444 119 q 510 351 510 240 q 479 514 510 461 q 400 567 449 567 z "},"q":{"ha":740,"x_min":54,"x_max":679,"o":"m 472 -193 l 472 51 q 300 -12 394 -12 q 117 83 179 -12 q 54 348 54 179 q 133 613 54 517 q 323 708 213 708 q 511 640 433 708 q 621 699 553 690 q 656 660 639 686 q 679 611 674 635 q 640 492 640 578 l 640 -290 l 632 -300 l 565 -300 q 493 -276 514 -300 q 472 -193 472 -251 m 339 128 q 472 194 413 128 l 472 519 q 353 575 410 575 q 264 515 297 575 q 231 344 231 456 q 260 181 231 233 q 339 128 290 128 z "},"r":{"ha":526,"x_min":58,"x_max":522,"o":"m 58 608 q 81 659 64 632 q 117 699 99 686 q 263 575 225 682 q 442 699 318 699 q 522 689 474 699 q 481 528 522 599 q 418 536 460 533 q 282 446 333 536 l 282 0 q 197 -7 243 -7 q 110 0 151 -7 l 110 465 q 58 608 110 567 z "},"s":{"ha":611,"x_min":36,"x_max":568,"o":"m 36 50 q 53 113 38 78 q 89 168 68 149 q 283 108 200 108 q 362 128 333 108 q 390 179 390 147 q 313 263 390 233 l 235 292 q 60 493 60 357 q 131 649 60 590 q 319 708 201 708 q 553 654 436 708 q 540 586 554 622 q 503 532 525 550 q 315 579 400 579 q 253 561 276 579 q 231 513 231 543 q 304 442 231 468 l 389 410 q 568 196 568 343 q 494 39 568 97 q 288 -19 419 -19 q 36 50 157 -19 z "},"t":{"ha":500,"x_min":14,"x_max":469,"o":"m 463 690 q 469 627 469 663 q 463 565 469 592 l 293 568 l 293 190 q 353 128 293 128 l 442 128 q 456 54 456 86 q 451 6 456 22 q 286 -7 364 -7 q 125 156 125 -7 l 125 567 l 21 565 q 14 627 14 592 q 21 690 14 663 l 125 688 l 125 793 q 146 876 125 851 q 218 900 167 900 l 285 900 l 293 890 l 293 688 l 463 690 z "},"u":{"ha":761,"x_min":67,"x_max":699,"o":"m 93 222 l 93 532 q 67 661 93 615 q 166 699 108 699 q 244 672 224 699 q 265 590 265 646 l 265 260 q 282 169 265 196 q 342 142 299 142 q 488 211 421 142 l 488 689 q 574 696 526 696 q 660 689 621 696 l 660 196 q 699 76 660 107 q 640 -11 686 22 q 506 88 542 1 q 282 -12 399 -12 q 141 52 189 -12 q 93 222 93 117 z "},"v":{"ha":646,"x_min":3,"x_max":639,"o":"m 335 135 l 482 689 q 556 694 511 694 q 633 682 600 694 l 639 674 q 433 0 504 215 q 316 -8 378 -8 q 228 10 254 -8 q 185 82 201 28 l 3 675 q 100 700 57 700 q 196 622 176 700 l 276 336 q 322 146 288 300 q 335 135 324 135 z "},"w":{"ha":1022,"x_min":22,"x_max":1003,"o":"m 163 81 l 22 678 q 114 700 72 700 q 174 683 156 700 q 201 628 193 665 l 256 364 q 297 139 285 235 q 308 128 300 128 l 410 683 q 513 692 443 692 q 614 683 582 692 l 713 139 q 724 128 715 128 q 769 364 760 318 l 840 689 q 920 696 871 696 q 997 682 969 696 l 1003 672 l 836 0 q 724 -7 794 -7 q 628 10 654 -7 q 594 78 603 26 l 561 254 q 515 532 538 392 l 507 532 q 458 256 494 440 l 410 0 q 294 -7 363 -7 q 200 10 225 -7 q 163 81 175 28 z "},"x":{"ha":650,"x_min":14,"x_max":640,"o":"m 456 689 q 526 696 486 696 q 610 683 567 696 l 614 671 l 418 367 l 640 28 q 524 -11 582 -11 q 433 40 467 -11 l 314 225 l 178 0 q 103 -8 153 -8 q 19 6 53 -8 l 14 18 l 231 354 l 31 663 q 144 701 86 701 q 235 649 201 701 l 336 493 l 456 689 z "},"y":{"ha":665,"x_min":4,"x_max":653,"o":"m 653 672 l 474 21 q 359 -226 428 -147 q 153 -304 290 -304 q 6 -279 78 -304 q 6 -256 6 -272 q 15 -208 6 -240 q 42 -156 24 -175 q 157 -175 100 -175 q 307 -26 265 -175 l 313 -8 q 233 11 263 -7 q 190 72 203 29 l 17 675 q 122 700 72 700 q 207 625 188 700 l 289 325 q 333 129 293 313 q 346 119 335 119 l 486 689 q 564 696 518 696 q 647 683 610 696 l 653 672 z "},"z":{"ha":621,"x_min":43,"x_max":581,"o":"m 68 156 l 271 429 q 382 561 301 471 l 378 568 q 199 558 300 558 l 67 558 q 61 613 61 581 q 71 689 61 644 l 543 689 q 567 590 567 618 q 549 536 567 563 l 343 261 q 238 129 296 194 l 242 124 q 363 131 314 131 l 422 131 q 564 151 519 131 q 581 79 581 107 q 481 0 581 0 l 64 0 q 43 91 43 63 q 68 156 43 119 z "},"{":{"ha":510,"x_min":51,"x_max":497,"o":"m 60 508 q 143 566 111 522 q 175 668 175 610 l 175 899 q 232 1058 175 999 q 383 1133 289 1118 l 463 1146 q 488 1098 481 1128 q 496 1054 496 1068 q 494 1032 496 1040 l 419 1007 q 368 969 388 997 q 349 897 349 940 l 349 671 q 316 542 349 601 q 231 458 283 483 l 231 447 q 316 365 283 424 q 349 236 349 306 l 349 8 q 368 -63 349 -35 q 419 -101 388 -92 l 494 -126 q 496 -149 496 -135 q 488 -192 496 -162 q 463 -240 481 -222 l 383 -228 q 232 -153 289 -212 q 175 7 175 -93 l 175 239 q 142 341 175 297 q 60 397 110 385 q 51 453 51 418 q 60 508 51 489 z "},"|":{"ha":363,"x_min":101,"x_max":261,"o":"m 101 -196 l 101 1075 q 181 1082 131 1082 q 261 1075 231 1082 l 261 -196 q 180 -203 229 -203 q 101 -196 131 -203 z "},"}":{"ha":510,"x_min":13,"x_max":457,"o":"m 449 508 q 457 453 457 489 q 449 397 457 418 q 366 340 399 385 q 333 239 333 296 l 333 7 q 277 -153 333 -93 q 126 -228 221 -212 l 47 -240 q 22 -192 29 -222 q 14 -149 14 -162 q 15 -126 14 -135 l 90 -101 q 160 8 160 -81 l 160 236 q 193 364 160 304 q 279 447 226 424 l 279 458 q 192 543 225 483 q 160 671 160 603 l 160 897 q 90 1007 160 986 l 15 1032 q 14 1054 14 1040 q 22 1098 14 1068 q 47 1146 29 1128 l 126 1133 q 277 1058 221 1118 q 333 899 333 999 l 333 668 q 366 566 333 610 q 449 508 399 522 z "},"~":{"ha":839,"x_min":50,"x_max":789,"o":"m 397 510 l 508 460 q 582 443 544 443 q 657 485 619 443 l 686 518 q 747 497 715 515 q 789 451 778 479 l 767 414 q 563 283 692 283 q 442 313 504 283 l 331 363 q 263 379 288 379 q 182 336 217 379 l 153 304 q 92 325 124 307 q 50 371 61 343 l 72 408 q 276 539 149 539 q 397 510 331 539 z "},"¡":{"ha":411,"x_min":104,"x_max":310,"o":"m 275 410 l 297 -224 q 114 -272 229 -272 l 104 -258 l 143 410 q 210 418 169 418 q 275 410 250 418 m 297 539 q 209 519 263 519 q 121 539 156 519 q 107 611 107 564 q 121 682 107 658 q 209 701 156 701 q 297 682 263 701 q 310 611 310 661 q 297 539 310 561 z "},"¢":{"ha":647,"x_min":50,"x_max":603,"o":"m 274 -44 l 274 94 q 103 217 156 118 q 50 461 50 317 q 114 695 50 606 q 278 807 178 785 l 278 946 q 343 951 300 951 q 408 946 386 951 l 408 810 q 551 734 499 793 q 603 606 603 675 q 511 508 603 508 q 447 517 476 508 q 447 525 447 521 q 340 686 447 686 q 226 456 226 686 q 369 226 226 226 q 528 293 443 226 q 571 251 550 279 q 597 197 592 224 q 404 93 524 115 l 404 -44 q 339 -49 379 -49 q 274 -44 299 -49 z "},"£":{"ha":740,"x_min":64,"x_max":694,"o":"m 315 490 l 563 492 q 572 429 572 461 q 563 364 572 397 q 336 365 411 364 q 251 139 331 246 l 256 135 q 471 143 375 143 l 694 143 q 690 83 694 106 q 575 -1 675 -1 l 93 -1 q 72 114 72 82 q 94 175 72 146 l 114 207 q 178 364 172 289 l 75 364 q 64 426 64 394 q 75 492 64 458 q 113 491 86 492 q 153 490 139 490 q 139 523 150 499 q 124 559 128 547 q 113 592 119 571 q 100 668 100 629 q 175 842 100 765 q 388 919 250 919 q 672 813 553 919 q 641 746 667 778 q 582 704 615 714 q 400 776 496 776 q 308 744 344 776 q 271 656 271 713 q 281 588 271 615 q 301 530 290 560 q 315 490 311 500 z "},"¤":{"ha":807,"x_min":39,"x_max":768,"o":"m 138 299 q 92 463 92 371 q 136 628 92 556 l 39 735 q 129 826 67 786 l 239 726 q 402 767 313 767 q 565 728 492 767 l 676 829 q 768 739 732 796 l 668 628 q 714 463 714 556 q 668 297 714 371 l 765 190 q 675 100 736 138 l 564 200 q 403 163 494 163 q 242 200 311 163 l 129 100 q 39 190 75 133 l 138 299 m 403 638 q 369 638 403 638 q 299 588 335 638 q 263 465 263 539 q 299 340 263 390 q 403 290 335 290 q 507 340 471 290 q 543 464 543 389 q 507 588 543 539 q 403 638 471 638 z "},"¥":{"ha":733,"x_min":29,"x_max":708,"o":"m 656 225 l 450 225 l 450 0 q 364 -7 414 -7 q 281 0 314 -7 l 281 225 l 74 225 q 65 281 65 258 q 74 338 65 304 l 274 338 l 228 440 l 74 440 q 65 494 65 472 q 74 553 65 517 l 176 553 l 29 882 q 129 914 86 914 q 190 899 172 914 q 221 853 207 885 l 308 640 q 368 469 329 590 l 375 469 q 439 643 408 576 l 549 901 q 622 910 579 910 q 701 900 664 910 l 708 890 l 554 553 l 656 553 q 664 494 664 517 q 656 440 664 472 l 503 440 l 457 338 l 656 338 q 664 281 664 304 q 656 225 664 258 z "},"¦":{"ha":354,"x_min":97,"x_max":257,"o":"m 97 -196 l 97 342 q 176 349 128 349 q 257 342 224 349 l 257 -196 q 176 -203 224 -203 q 97 -196 129 -203 m 97 538 l 97 1075 q 176 1082 128 1082 q 257 1075 224 1082 l 257 538 q 176 531 224 531 q 97 538 129 531 z "},"§":{"ha":682,"x_min":42,"x_max":643,"o":"m 643 426 q 500 221 643 306 q 593 60 593 156 q 519 -96 593 -36 q 317 -156 446 -156 q 89 -97 188 -156 q 103 -30 88 -67 q 140 22 119 7 q 328 -28 250 -28 q 397 -9 371 -28 q 422 42 422 10 q 347 119 422 89 l 267 151 q 101 249 160 196 q 42 388 42 301 q 183 592 42 510 q 90 753 90 657 q 163 908 90 849 q 351 968 236 968 q 572 918 465 968 q 559 851 574 888 q 524 797 544 815 q 367 840 421 840 q 288 821 313 840 q 263 771 263 801 q 336 694 263 725 l 417 663 q 584 565 525 618 q 643 426 643 511 m 336 522 l 299 536 q 233 485 258 517 q 208 414 208 453 q 244 347 208 375 q 347 292 279 319 l 385 276 q 475 397 475 324 q 439 467 475 439 q 336 522 403 496 z "},"¨":{"ha":553,"x_min":56,"x_max":497,"o":"m 333 796 q 322 856 322 826 q 333 917 322 886 q 410 936 367 936 q 486 917 453 936 q 497 855 497 890 q 486 796 497 819 q 410 778 454 778 q 333 796 365 778 m 67 796 q 56 856 56 822 q 67 917 56 890 q 144 936 101 936 q 219 917 186 936 q 231 856 231 886 q 219 796 231 825 q 143 778 188 778 q 67 796 99 778 z "},"©":{"ha":1107,"x_min":51,"x_max":1056,"o":"m 196 117 q 124 189 196 117 q 51 474 51 261 q 196 831 51 686 q 553 976 340 976 q 910 831 765 976 q 1056 474 1056 686 q 910 117 1056 261 q 553 -28 765 -28 q 196 117 340 -28 m 292 747 q 240 691 292 747 q 188 474 188 635 q 291 201 188 313 q 553 90 394 90 q 815 201 711 90 q 919 474 919 313 q 815 747 919 635 q 553 858 711 858 q 292 747 396 858 m 638 519 q 638 526 638 524 q 551 646 638 646 q 454 475 454 646 q 485 352 454 394 q 572 310 517 310 q 703 361 626 310 q 756 283 744 338 q 665 224 722 247 q 554 201 608 201 q 373 278 432 201 q 314 483 314 356 q 386 680 314 611 q 553 749 458 749 q 706 699 649 749 q 763 585 763 649 q 689 511 763 511 q 638 519 656 511 z "},"ª":{"ha":607,"x_min":54,"x_max":549,"o":"m 549 476 q 529 433 546 456 q 492 400 513 410 q 388 461 422 406 q 229 394 313 394 q 100 443 146 394 q 54 560 54 492 q 114 698 54 651 q 271 744 174 744 q 364 740 314 744 l 364 776 q 342 835 364 815 q 288 854 321 854 q 118 818 217 854 q 79 917 82 857 q 321 968 199 968 q 459 922 406 968 q 513 781 513 875 l 513 564 q 549 476 513 499 m 263 503 q 364 549 311 503 l 364 644 q 281 649 321 649 q 219 627 242 649 q 197 574 197 606 q 215 522 197 542 q 263 503 233 503 z "},"«":{"ha":807,"x_min":40,"x_max":760,"o":"m 753 575 l 569 357 l 760 133 q 722 80 751 107 q 664 44 693 53 l 386 303 q 378 354 378 324 q 386 406 378 385 l 660 665 q 717 630 689 657 q 753 575 744 603 m 415 575 l 232 357 l 422 133 q 385 80 414 107 q 326 44 356 53 l 49 303 q 40 354 40 324 q 49 406 40 385 l 322 665 q 379 630 351 657 q 415 575 407 603 z "},"¬":{"ha":736,"x_min":63,"x_max":660,"o":"m 510 349 l 431 347 l 69 347 q 63 418 63 375 q 69 490 63 461 l 651 490 l 660 481 l 660 165 q 588 158 632 158 q 508 165 543 158 l 508 275 l 510 349 z "},"­":{"ha":500,"x_min":61,"x_max":439,"o":"m 432 300 l 69 300 q 61 372 61 328 q 69 443 61 415 l 432 443 q 439 372 439 414 q 432 300 439 329 z "},"®":{"ha":828,"x_min":43,"x_max":785,"o":"m 414 292 q 336 292 414 292 q 151 399 258 292 q 43 662 43 506 q 151 926 43 818 q 414 1033 258 1033 q 677 925 569 1033 q 785 661 785 817 q 677 399 785 506 q 414 292 569 292 m 226 855 q 188 815 226 855 q 150 661 150 775 q 226 469 150 547 q 414 390 301 390 q 602 469 526 390 q 678 662 678 549 q 602 855 678 775 q 414 935 526 935 q 226 855 301 935 m 422 844 q 526 816 492 844 q 560 746 560 788 q 539 681 560 704 q 489 649 518 657 q 535 596 514 636 l 553 561 q 583 522 568 532 q 523 488 563 488 q 463 529 483 488 l 431 592 q 390 618 417 618 l 368 618 l 368 494 q 322 486 344 486 q 275 494 299 486 l 275 838 l 279 840 q 422 844 421 844 m 368 772 l 368 690 q 410 692 385 692 q 461 732 461 692 q 415 772 461 772 l 368 772 z "},"¯":{"ha":553,"x_min":67,"x_max":486,"o":"m 479 797 l 75 797 q 67 862 67 824 q 75 928 67 900 l 479 928 q 486 862 486 899 q 479 797 486 825 z "},"°":{"ha":467,"x_min":24,"x_max":444,"o":"m 234 511 q 189 511 234 511 q 83 571 143 511 q 24 723 24 631 q 83 875 24 815 q 234 935 143 935 q 385 875 325 935 q 444 723 444 815 q 385 571 444 631 q 234 511 325 511 m 233 822 q 214 822 233 822 q 172 795 194 822 q 149 723 149 768 q 172 651 149 678 q 233 624 194 624 q 295 651 272 624 q 318 722 318 678 q 295 794 318 767 q 233 822 272 822 z "},"±":{"ha":736,"x_min":85,"x_max":651,"o":"m 296 554 l 294 636 l 294 754 q 369 761 324 761 q 443 754 414 761 l 443 636 q 442 554 443 636 l 518 556 l 644 556 q 651 491 651 526 q 644 424 651 456 l 518 424 l 442 425 l 443 346 l 443 225 q 369 219 411 219 q 294 225 326 219 l 294 346 l 296 425 l 218 424 l 92 424 q 85 491 85 456 q 92 556 85 526 l 218 556 l 296 554 m 644 0 l 92 0 q 85 67 85 31 q 92 136 85 103 l 644 136 q 651 67 651 103 q 644 0 651 31 z "},"²":{"ha":583,"x_min":68,"x_max":500,"o":"m 500 588 q 497 526 500 560 q 414 458 485 458 l 114 458 q 68 546 68 518 q 167 701 68 619 l 278 793 q 331 882 331 836 q 313 928 331 910 q 266 947 294 947 q 216 926 238 947 q 185 874 194 906 q 122 890 157 875 q 75 922 88 904 q 147 1032 92 988 q 286 1076 201 1076 q 427 1024 371 1076 q 483 900 483 971 q 455 783 483 829 q 369 694 426 738 l 292 635 q 219 575 232 589 q 351 588 293 588 l 500 588 z "},"³":{"ha":583,"x_min":64,"x_max":493,"o":"m 440 922 l 367 854 q 329 828 354 842 q 447 776 400 825 q 493 642 493 726 q 426 506 493 558 q 267 453 360 453 q 64 517 142 453 q 121 614 75 572 q 238 569 188 569 q 316 592 289 569 q 343 654 343 615 q 321 717 343 693 q 266 740 299 740 q 208 729 233 740 q 173 760 190 736 q 151 806 156 783 l 253 903 q 311 949 279 929 l 307 953 q 197 946 265 946 l 94 946 q 86 1006 86 969 q 97 1067 86 1042 l 442 1067 q 471 983 471 1015 q 440 922 471 950 z "},"´":{"ha":553,"x_min":161,"x_max":479,"o":"m 161 817 l 367 1043 q 435 1001 403 1031 q 479 936 468 971 l 233 749 q 161 817 182 764 z "},"¶":{"ha":975,"x_min":50,"x_max":950,"o":"m 392 85 l 392 340 l 369 340 q 139 420 228 340 q 50 652 50 500 q 139 880 50 804 q 378 956 228 956 q 557 950 421 956 l 567 940 l 567 117 q 553 -34 567 25 q 500 -137 540 -93 q 279 -218 429 -218 q 89 -185 179 -218 q 99 -119 88 -157 q 128 -57 110 -81 q 270 -86 210 -86 q 361 -49 331 -86 q 392 85 392 -12 m 893 799 l 829 800 l 829 -183 q 741 -190 794 -190 q 654 -183 688 -190 l 654 939 l 664 949 l 942 949 q 950 874 950 924 q 942 799 950 824 l 893 799 z "},"·":{"ha":436,"x_min":117,"x_max":319,"o":"m 129 321 q 117 395 117 346 q 129 471 117 444 q 219 492 164 492 q 307 471 275 492 q 319 395 319 440 q 307 321 319 350 q 219 300 278 300 q 129 321 161 300 z "},"¸":{"ha":553,"x_min":151,"x_max":442,"o":"m 196 -104 q 232 0 208 -53 l 331 0 q 308 -49 318 -24 q 405 -85 368 -51 q 442 -177 442 -119 q 392 -275 442 -235 q 268 -315 342 -315 q 151 -285 194 -315 q 182 -204 154 -236 q 250 -224 211 -224 q 307 -175 307 -224 q 293 -140 307 -153 q 260 -126 279 -126 q 224 -132 240 -126 q 196 -104 204 -125 z "},"¹":{"ha":583,"x_min":68,"x_max":514,"o":"m 68 868 q 184 957 142 913 q 257 1064 226 1001 q 321 1072 292 1072 q 392 1064 350 1072 l 392 586 l 506 586 q 514 524 514 557 q 506 461 514 490 l 111 461 q 104 525 104 496 q 111 586 104 554 l 250 586 l 250 767 q 256 867 250 792 q 133 778 217 817 q 68 868 82 804 z "},"º":{"ha":596,"x_min":53,"x_max":544,"o":"m 464 908 q 544 679 544 824 q 464 454 544 535 q 297 393 400 393 q 133 454 194 393 q 53 679 53 535 q 133 908 53 824 q 298 968 196 968 q 464 908 400 968 m 399 681 q 399 768 399 681 q 299 856 399 856 q 199 681 199 856 q 299 506 199 506 q 399 681 399 506 z "},"»":{"ha":807,"x_min":47,"x_max":768,"o":"m 54 135 l 238 353 l 47 576 q 86 630 57 603 q 144 665 115 657 l 421 407 q 431 356 431 386 q 421 304 431 325 l 149 44 q 92 80 119 53 q 54 135 64 107 m 392 135 l 575 353 l 385 576 q 424 630 394 603 q 482 665 453 657 l 758 407 q 768 356 768 386 q 758 304 768 325 l 486 44 q 429 80 457 53 q 392 135 401 107 z "},"¼":{"ha":1372,"x_min":43,"x_max":1321,"o":"m 43 753 q 159 842 117 797 q 232 949 201 886 q 296 957 267 957 q 367 949 325 957 l 367 471 l 481 471 q 489 408 489 442 q 481 346 489 375 l 86 346 q 79 410 79 381 q 86 471 79 439 l 225 471 l 225 651 q 231 751 225 676 q 108 663 192 701 q 43 753 57 689 m 389 0 l 913 949 q 1001 957 947 957 q 1079 949 1056 957 l 556 0 q 467 -8 521 -8 q 389 0 413 -8 m 1097 110 l 1033 108 l 875 108 q 844 189 844 160 q 864 261 844 218 l 1025 615 q 1051 615 1033 615 q 1106 608 1069 615 q 1163 583 1142 600 l 1071 383 q 986 228 1024 276 l 989 225 q 1097 231 1038 231 l 1097 294 q 1124 371 1097 343 q 1194 399 1150 399 l 1232 399 l 1236 393 l 1236 231 l 1315 231 q 1321 178 1321 210 q 1310 110 1321 146 l 1236 110 l 1236 7 q 1168 0 1210 0 q 1097 7 1126 0 l 1097 110 z "},"½":{"ha":1372,"x_min":43,"x_max":1308,"o":"m 371 0 l 894 949 q 983 957 929 957 q 1061 949 1038 957 l 538 0 q 449 -8 503 -8 q 371 0 394 -8 m 43 753 q 159 842 117 797 q 232 949 201 886 q 296 957 267 957 q 367 949 325 957 l 367 471 l 481 471 q 489 408 489 442 q 481 346 489 375 l 86 346 q 79 410 79 381 q 86 471 79 439 l 225 471 l 225 651 q 231 751 225 676 q 108 663 192 701 q 43 753 57 689 m 1308 133 q 1306 72 1308 106 q 1222 4 1293 4 l 922 4 q 876 92 876 64 q 975 247 876 165 l 1086 339 q 1139 428 1139 382 q 1121 474 1139 456 q 1074 493 1103 493 q 1024 472 1046 493 q 993 419 1003 451 q 931 435 965 421 q 883 468 896 450 q 955 578 900 533 q 1094 622 1010 622 q 1235 569 1179 622 q 1292 446 1292 517 q 1263 329 1292 375 q 1178 240 1235 283 l 1100 181 q 1028 121 1040 135 q 1160 133 1100 133 l 1308 133 z "},"¾":{"ha":1372,"x_min":65,"x_max":1307,"o":"m 361 0 l 885 949 q 974 957 919 957 q 1051 949 1028 957 l 528 0 q 439 -8 493 -8 q 361 0 385 -8 m 442 807 l 368 739 q 331 713 356 726 q 448 660 401 710 q 494 527 494 611 q 428 390 494 443 q 268 338 361 338 q 65 401 143 338 q 122 499 76 457 q 240 454 189 454 q 317 477 290 454 q 344 539 344 500 q 322 601 344 578 q 267 625 300 625 q 210 614 235 625 q 174 644 192 621 q 153 690 157 668 l 254 788 q 313 833 281 814 l 308 838 q 199 831 267 831 l 96 831 q 88 890 88 854 q 99 951 88 926 l 443 951 q 472 867 472 900 q 442 807 472 835 m 1083 110 l 1019 108 l 861 108 q 831 189 831 160 q 850 261 831 218 l 1011 615 q 1038 615 1019 615 q 1092 608 1056 615 q 1149 583 1128 600 l 1057 383 q 972 228 1010 276 l 975 225 q 1083 231 1024 231 l 1083 294 q 1110 371 1083 343 q 1181 399 1136 399 l 1218 399 l 1222 393 l 1222 231 l 1301 231 q 1307 178 1307 210 q 1296 110 1307 146 l 1222 110 l 1222 7 q 1154 0 1196 0 q 1083 7 1113 0 l 1083 110 z "},"¿":{"ha":563,"x_min":17,"x_max":560,"o":"m 560 -208 q 295 -282 429 -282 q 89 -215 161 -282 q 17 -39 17 -149 q 199 232 17 133 l 285 279 l 296 407 q 362 415 321 415 q 428 407 403 415 l 436 200 l 422 182 l 351 147 q 199 -21 199 71 q 232 -103 199 -72 q 333 -133 265 -133 q 497 -82 400 -133 q 540 -138 521 -101 q 560 -208 558 -175 m 449 539 q 359 519 414 519 q 272 539 304 519 q 258 611 258 564 q 272 682 258 658 q 359 701 304 701 q 449 682 414 701 q 461 611 461 661 q 449 539 461 561 z "},"À":{"ha":864,"x_min":21,"x_max":842,"o":"m 593 218 l 521 217 l 328 217 l 257 218 l 189 -1 q 110 -8 161 -8 q 28 4 58 -8 l 21 13 l 332 949 q 438 956 378 956 q 535 947 497 956 l 842 11 q 749 -11 801 -11 q 674 9 697 -11 q 635 83 651 29 l 593 218 m 300 360 l 365 361 l 489 361 q 516 360 493 361 q 550 360 539 360 l 503 515 q 428 781 464 639 l 421 781 q 361 556 404 696 l 300 360 m 311 1274 l 604 1097 q 554 1011 593 1035 l 239 1138 q 265 1215 243 1175 q 311 1274 288 1256 z "},"Á":{"ha":864,"x_min":21,"x_max":842,"o":"m 593 218 l 521 217 l 328 217 l 257 218 l 189 -1 q 110 -8 161 -8 q 28 4 58 -8 l 21 13 l 332 949 q 438 956 378 956 q 535 947 497 956 l 842 11 q 749 -11 801 -11 q 674 9 697 -11 q 635 83 651 29 l 593 218 m 300 360 l 365 361 l 489 361 q 516 360 493 361 q 550 360 539 360 l 503 515 q 428 781 464 639 l 421 781 q 361 556 404 696 l 300 360 m 282 1097 l 575 1274 q 621 1215 599 1256 q 647 1138 643 1175 l 332 1011 q 299 1047 313 1022 q 282 1097 285 1072 z "},"Â":{"ha":864,"x_min":21,"x_max":842,"o":"m 593 218 l 521 217 l 328 217 l 257 218 l 189 -1 q 110 -8 161 -8 q 28 4 58 -8 l 21 13 l 332 949 q 438 956 378 956 q 535 947 497 956 l 842 11 q 749 -11 801 -11 q 674 9 697 -11 q 635 83 651 29 l 593 218 m 300 360 l 365 361 l 489 361 q 516 360 493 361 q 550 360 539 360 l 503 515 q 428 781 464 639 l 421 781 q 361 556 404 696 l 300 360 m 592 1022 l 433 1126 l 271 1010 q 227 1039 250 1017 q 199 1083 204 1061 l 358 1244 q 431 1253 394 1253 q 507 1246 468 1253 l 664 1096 q 634 1051 656 1071 q 592 1022 613 1031 z "},"Ã":{"ha":864,"x_min":21,"x_max":842,"o":"m 593 218 l 521 217 l 328 217 l 257 218 l 189 -1 q 110 -8 161 -8 q 28 4 58 -8 l 21 13 l 332 949 q 438 956 378 956 q 535 947 497 956 l 842 11 q 749 -11 801 -11 q 674 9 697 -11 q 635 83 651 29 l 593 218 m 300 360 l 365 361 l 489 361 q 516 360 493 361 q 550 360 539 360 l 503 515 q 428 781 464 639 l 421 781 q 361 556 404 696 l 300 360 m 444 1051 l 372 1086 q 324 1099 350 1099 q 274 1065 299 1099 l 260 1046 q 208 1062 233 1047 q 174 1099 182 1076 l 185 1125 q 249 1205 208 1175 q 335 1235 289 1235 q 425 1211 381 1235 l 497 1176 q 546 1164 522 1164 q 596 1199 569 1164 l 610 1218 q 661 1201 636 1217 q 696 1165 686 1186 l 685 1139 q 531 1029 633 1029 q 444 1051 489 1029 z "},"Ä":{"ha":864,"x_min":21,"x_max":842,"o":"m 593 218 l 521 217 l 328 217 l 257 218 l 189 -1 q 110 -8 161 -8 q 28 4 58 -8 l 21 13 l 332 949 q 438 956 378 956 q 535 947 497 956 l 842 11 q 749 -11 801 -11 q 674 9 697 -11 q 635 83 651 29 l 593 218 m 300 360 l 365 361 l 489 361 q 516 360 493 361 q 550 360 539 360 l 503 515 q 428 781 464 639 l 421 781 q 361 556 404 696 l 300 360 m 513 1165 q 587 1185 544 1185 q 661 1165 629 1185 q 675 1103 675 1144 q 661 1042 675 1061 q 587 1022 633 1022 q 513 1042 540 1022 q 496 1103 496 1063 q 513 1165 496 1143 m 208 1165 q 281 1185 238 1185 q 357 1165 325 1185 q 372 1102 372 1144 q 357 1042 372 1060 q 282 1022 329 1022 q 208 1042 235 1022 q 194 1103 194 1061 q 208 1165 194 1144 z "},"Å":{"ha":864,"x_min":21,"x_max":842,"o":"m 593 218 l 521 217 l 328 217 l 257 218 l 189 -1 q 110 -8 161 -8 q 28 4 58 -8 l 21 13 l 332 949 l 333 949 q 256 1089 256 996 q 306 1206 256 1158 q 435 1254 356 1254 q 563 1206 514 1254 q 613 1089 613 1158 q 533 947 613 996 l 535 947 l 842 11 q 749 -11 801 -11 q 674 9 697 -11 q 635 83 651 29 l 593 218 m 300 360 l 365 361 l 489 361 q 516 360 493 361 q 550 360 539 360 l 503 515 q 428 781 464 639 l 421 781 q 361 556 404 696 l 300 360 m 385 1141 q 375 1131 385 1141 q 365 1089 365 1121 q 385 1036 365 1057 q 435 1015 404 1015 q 484 1036 465 1015 q 503 1089 503 1057 q 484 1141 503 1121 q 435 1161 465 1161 q 385 1141 404 1161 z "},"Æ":{"ha":1222,"x_min":15,"x_max":1164,"o":"m 722 228 l 721 144 q 817 147 779 147 l 1164 147 q 1160 82 1164 104 q 1047 -3 1144 -3 l 651 -3 q 577 26 604 -3 q 550 104 550 54 l 550 218 q 486 217 528 217 l 363 217 q 294 218 318 217 l 194 0 q 110 -7 168 -7 q 21 4 53 -7 l 15 14 l 454 933 q 560 949 489 949 l 1133 949 q 1139 880 1139 922 q 1125 800 1139 838 l 721 800 l 722 706 l 722 550 q 811 551 756 551 l 1056 551 q 1065 478 1065 518 q 1056 406 1065 439 l 811 406 q 722 407 756 406 l 722 228 m 486 360 l 550 358 l 550 781 l 544 781 q 450 554 494 654 l 360 358 l 411 360 l 486 360 z "},"Ç":{"ha":842,"x_min":61,"x_max":794,"o":"m 360 -104 q 388 -17 369 -60 q 235 35 300 -8 q 133 150 169 79 q 61 471 61 286 q 172 842 61 717 q 443 968 282 968 q 699 887 604 968 q 794 690 794 806 q 694 592 794 592 q 625 601 658 592 q 625 613 625 607 q 584 763 625 700 q 447 826 543 826 q 247 469 247 826 q 303 222 247 308 q 467 135 360 135 q 706 238 574 135 q 758 185 733 218 q 790 124 783 153 q 485 -17 671 4 q 472 -49 475 -40 q 569 -85 532 -51 q 606 -177 606 -119 q 556 -275 606 -235 q 432 -315 506 -315 q 315 -285 358 -315 q 346 -204 318 -236 q 414 -224 375 -224 q 471 -175 471 -224 q 457 -140 471 -154 q 424 -126 443 -126 q 388 -132 404 -126 q 360 -104 368 -125 z "},"È":{"ha":790,"x_min":117,"x_max":731,"o":"m 292 226 l 290 144 q 386 147 349 147 l 731 147 q 728 82 731 104 q 614 -3 713 -3 l 218 -3 q 144 26 171 -3 q 117 104 117 54 l 117 939 l 126 949 l 700 949 q 707 880 707 915 q 693 800 707 844 l 290 800 l 292 706 l 292 550 q 381 551 325 551 l 622 551 q 632 478 632 518 q 622 406 632 439 l 381 406 q 292 407 325 406 l 292 226 m 292 1274 l 585 1097 q 535 1011 574 1035 l 219 1138 q 246 1215 224 1175 q 292 1274 268 1256 z "},"É":{"ha":790,"x_min":117,"x_max":731,"o":"m 292 226 l 290 144 q 386 147 349 147 l 731 147 q 728 82 731 104 q 614 -3 713 -3 l 218 -3 q 144 26 171 -3 q 117 104 117 54 l 117 939 l 126 949 l 700 949 q 707 880 707 915 q 693 800 707 844 l 290 800 l 292 706 l 292 550 q 381 551 325 551 l 622 551 q 632 478 632 518 q 622 406 632 439 l 381 406 q 292 407 325 406 l 292 226 m 263 1097 l 556 1274 q 601 1215 579 1256 q 628 1138 624 1175 l 313 1011 q 279 1047 293 1022 q 263 1097 265 1072 z "},"Ê":{"ha":790,"x_min":117,"x_max":731,"o":"m 292 226 l 290 144 q 386 147 349 147 l 731 147 q 728 82 731 104 q 614 -3 713 -3 l 218 -3 q 144 26 171 -3 q 117 104 117 54 l 117 939 l 126 949 l 700 949 q 707 880 707 915 q 693 800 707 844 l 290 800 l 292 706 l 292 550 q 381 551 325 551 l 622 551 q 632 478 632 518 q 622 406 632 439 l 381 406 q 292 407 325 406 l 292 226 m 572 1022 l 414 1126 l 251 1010 q 208 1039 231 1017 q 179 1083 185 1061 l 339 1244 q 412 1253 375 1253 q 488 1246 449 1253 l 644 1096 q 615 1051 636 1071 q 572 1022 593 1031 z "},"Ë":{"ha":790,"x_min":117,"x_max":731,"o":"m 292 226 l 290 144 q 386 147 349 147 l 731 147 q 728 82 731 104 q 614 -3 713 -3 l 218 -3 q 144 26 171 -3 q 117 104 117 54 l 117 939 l 126 949 l 700 949 q 707 880 707 915 q 693 800 707 844 l 290 800 l 292 706 l 292 550 q 381 551 325 551 l 622 551 q 632 478 632 518 q 622 406 632 439 l 381 406 q 292 407 325 406 l 292 226 m 493 1165 q 567 1185 525 1185 q 642 1165 610 1185 q 656 1103 656 1144 q 642 1042 656 1061 q 567 1022 614 1022 q 493 1042 521 1022 q 476 1103 476 1063 q 493 1165 476 1143 m 189 1165 q 262 1185 218 1185 q 338 1165 306 1185 q 353 1102 353 1144 q 338 1042 353 1060 q 263 1022 310 1022 q 189 1042 215 1022 q 175 1103 175 1061 q 189 1165 175 1144 z "},"Ì":{"ha":421,"x_min":15,"x_max":381,"o":"m 122 0 l 122 949 q 210 956 156 956 q 299 949 264 956 l 299 0 q 210 -7 264 -7 q 122 0 156 -7 m 88 1275 l 381 1099 q 331 1013 369 1036 l 15 1139 q 42 1217 19 1176 q 88 1275 64 1257 z "},"Í":{"ha":421,"x_min":58,"x_max":424,"o":"m 122 0 l 122 949 q 210 956 156 956 q 299 949 264 956 l 299 0 q 210 -7 264 -7 q 122 0 156 -7 m 58 1099 l 351 1275 q 397 1217 375 1257 q 424 1139 419 1176 l 108 1013 q 75 1049 89 1024 q 58 1099 61 1074 z "},"Î":{"ha":421,"x_min":-25,"x_max":440,"o":"m 122 0 l 122 949 q 210 956 156 956 q 299 949 264 956 l 299 0 q 210 -7 264 -7 q 122 0 156 -7 m 368 1024 l 210 1128 l 47 1011 q 3 1040 26 1018 q -25 1085 -19 1063 l 135 1246 q 208 1254 171 1254 q 283 1247 244 1254 l 440 1097 q 410 1052 432 1072 q 368 1024 389 1032 z "},"Ï":{"ha":421,"x_min":-29,"x_max":451,"o":"m 122 0 l 122 949 q 210 956 156 956 q 299 949 264 956 l 299 0 q 210 -7 264 -7 q 122 0 156 -7 m 289 1167 q 363 1186 321 1186 q 438 1167 406 1186 q 451 1104 451 1146 q 438 1043 451 1063 q 363 1024 410 1024 q 289 1043 317 1024 q 272 1104 272 1064 q 289 1167 272 1144 m -15 1167 q 58 1186 14 1186 q 133 1167 101 1186 q 149 1103 149 1146 q 133 1043 149 1061 q 58 1024 106 1024 q -15 1043 11 1024 q -29 1104 -29 1063 q -15 1167 -29 1146 z "},"Ð":{"ha":932,"x_min":31,"x_max":868,"o":"m 718 885 q 837 714 806 814 q 868 474 868 614 q 837 234 868 335 q 718 63 806 133 q 606 10 676 28 q 463 -7 536 -7 q 149 -1 390 -7 l 139 7 l 139 408 l 38 408 q 31 480 31 436 q 38 553 31 524 l 139 553 l 139 942 l 149 950 q 472 956 310 956 q 605 938 535 956 q 718 885 675 919 m 513 408 l 313 408 l 313 133 l 471 133 q 686 475 686 133 q 583 786 686 717 q 454 815 538 815 q 313 817 371 815 l 313 553 l 513 553 q 519 480 519 514 q 513 408 519 446 z "},"Ñ":{"ha":953,"x_min":118,"x_max":835,"o":"m 826 956 l 835 947 l 835 3 q 733 -7 796 -7 q 624 0 671 -7 l 358 550 q 274 743 324 621 l 268 742 q 282 372 282 568 l 282 0 q 199 -7 246 -7 q 118 0 153 -7 l 118 946 q 219 956 157 956 q 326 949 281 956 l 589 400 q 681 196 625 325 l 685 197 q 671 569 671 394 l 671 847 q 693 931 671 906 q 768 956 715 956 l 826 956 m 490 1051 l 418 1086 q 370 1099 396 1099 q 319 1065 344 1099 l 306 1046 q 253 1062 279 1047 q 219 1099 228 1076 l 231 1125 q 294 1205 254 1175 q 381 1235 335 1235 q 471 1211 426 1235 l 543 1176 q 592 1164 568 1164 q 642 1199 615 1164 l 656 1218 q 707 1201 682 1217 q 742 1165 732 1186 l 731 1139 q 576 1029 679 1029 q 490 1051 535 1029 z "},"Ò":{"ha":918,"x_min":61,"x_max":857,"o":"m 459 829 q 352 829 459 829 q 246 474 246 829 q 459 119 246 119 q 672 474 672 119 q 459 829 672 829 m 210 65 q 61 474 61 192 q 210 883 61 757 q 458 968 311 968 q 710 883 606 968 q 857 474 857 757 q 710 65 857 192 q 458 -19 606 -19 q 210 65 311 -19 m 336 1274 l 629 1097 q 579 1011 618 1035 l 264 1138 q 290 1215 268 1175 q 336 1274 313 1256 z "},"Ó":{"ha":918,"x_min":61,"x_max":857,"o":"m 459 829 q 352 829 459 829 q 246 474 246 829 q 459 119 246 119 q 672 474 672 119 q 459 829 672 829 m 210 65 q 61 474 61 192 q 210 883 61 757 q 458 968 311 968 q 710 883 606 968 q 857 474 857 757 q 710 65 857 192 q 458 -19 606 -19 q 210 65 311 -19 m 307 1097 l 600 1274 q 646 1215 624 1256 q 672 1138 668 1175 l 357 1011 q 324 1047 338 1022 q 307 1097 310 1072 z "},"Ô":{"ha":918,"x_min":61,"x_max":857,"o":"m 459 829 q 352 829 459 829 q 246 474 246 829 q 459 119 246 119 q 672 474 672 119 q 459 829 672 829 m 210 65 q 61 474 61 192 q 210 883 61 757 q 458 968 311 968 q 710 883 606 968 q 857 474 857 757 q 710 65 857 192 q 458 -19 606 -19 q 210 65 311 -19 m 617 1022 l 458 1126 l 296 1010 q 252 1039 275 1017 q 224 1083 229 1061 l 383 1244 q 456 1253 419 1253 q 532 1246 493 1253 l 689 1096 q 659 1051 681 1071 q 617 1022 638 1031 z "},"Õ":{"ha":918,"x_min":61,"x_max":857,"o":"m 459 829 q 352 829 459 829 q 246 474 246 829 q 459 119 246 119 q 672 474 672 119 q 459 829 672 829 m 210 65 q 61 474 61 192 q 210 883 61 757 q 458 968 311 968 q 710 883 606 968 q 857 474 857 757 q 710 65 857 192 q 458 -19 606 -19 q 210 65 311 -19 m 464 1061 l 392 1096 q 344 1108 369 1108 q 293 1074 319 1108 l 278 1054 q 226 1070 251 1056 q 193 1107 201 1085 l 204 1135 q 358 1243 256 1243 q 444 1221 397 1243 l 517 1185 q 565 1172 542 1172 q 617 1207 589 1172 l 631 1226 q 681 1210 657 1225 q 715 1174 706 1196 l 704 1147 q 640 1067 681 1096 q 554 1038 600 1038 q 464 1061 508 1038 z "},"Ö":{"ha":918,"x_min":61,"x_max":857,"o":"m 459 829 q 352 829 459 829 q 246 474 246 829 q 459 119 246 119 q 672 474 672 119 q 459 829 672 829 m 210 65 q 61 474 61 192 q 210 883 61 757 q 458 968 311 968 q 710 883 606 968 q 857 474 857 757 q 710 65 857 192 q 458 -19 606 -19 q 210 65 311 -19 m 538 1165 q 612 1185 569 1185 q 686 1165 654 1185 q 700 1103 700 1144 q 686 1042 700 1061 q 612 1022 658 1022 q 538 1042 565 1022 q 521 1103 521 1063 q 538 1165 521 1143 m 233 1165 q 306 1185 263 1185 q 382 1165 350 1185 q 397 1102 397 1144 q 382 1042 397 1060 q 307 1022 354 1022 q 233 1042 260 1022 q 219 1103 219 1061 q 233 1165 219 1144 z "},"×":{"ha":736,"x_min":92,"x_max":643,"o":"m 367 308 l 196 135 q 133 180 161 151 q 92 239 104 208 l 265 410 l 217 460 l 92 583 q 135 644 107 619 q 196 688 161 674 l 319 563 l 367 513 q 539 686 417 563 q 601 643 574 671 q 643 583 629 615 l 519 458 l 469 411 l 643 239 q 539 135 614 168 l 417 260 l 367 308 z "},"Ø":{"ha":922,"x_min":61,"x_max":860,"o":"m 61 475 q 211 883 61 756 q 461 968 310 968 q 631 935 560 968 l 688 1036 q 800 974 761 1024 l 736 860 q 860 475 860 726 q 711 65 860 193 q 461 -19 610 -19 q 290 14 364 -19 l 235 -85 q 122 -24 161 -72 l 185 89 q 61 475 61 222 m 274 254 l 563 807 q 457 833 518 833 q 350 801 396 833 q 281 714 304 769 q 240 476 240 614 q 274 254 240 339 m 681 475 q 647 694 681 606 l 360 142 q 461 115 404 115 q 681 475 681 115 z "},"Ù":{"ha":932,"x_min":106,"x_max":826,"o":"m 826 949 l 826 340 q 731 74 826 168 q 466 -19 635 -19 q 201 74 297 -19 q 106 340 106 168 l 106 947 l 114 956 l 181 956 q 258 928 233 956 q 282 843 282 901 l 282 339 q 465 122 282 122 q 649 339 649 122 l 649 949 q 738 956 683 956 q 826 949 792 956 m 340 1274 l 633 1097 q 583 1011 622 1035 l 268 1138 q 294 1215 272 1175 q 340 1274 317 1256 z "},"Ú":{"ha":932,"x_min":106,"x_max":826,"o":"m 826 949 l 826 340 q 731 74 826 168 q 466 -19 635 -19 q 201 74 297 -19 q 106 340 106 168 l 106 947 l 114 956 l 181 956 q 258 928 233 956 q 282 843 282 901 l 282 339 q 465 122 282 122 q 649 339 649 122 l 649 949 q 738 956 683 956 q 826 949 792 956 m 311 1097 l 604 1274 q 650 1215 628 1256 q 676 1138 672 1175 l 361 1011 q 328 1047 342 1022 q 311 1097 314 1072 z "},"Û":{"ha":932,"x_min":106,"x_max":826,"o":"m 826 949 l 826 340 q 731 74 826 168 q 466 -19 635 -19 q 201 74 297 -19 q 106 340 106 168 l 106 947 l 114 956 l 181 956 q 258 928 233 956 q 282 843 282 901 l 282 339 q 465 122 282 122 q 649 339 649 122 l 649 949 q 738 956 683 956 q 826 949 792 956 m 621 1022 l 463 1126 l 300 1010 q 256 1039 279 1017 q 228 1083 233 1061 l 388 1244 q 460 1253 424 1253 q 536 1246 497 1253 l 693 1096 q 663 1051 685 1071 q 621 1022 642 1031 z "},"Ü":{"ha":932,"x_min":106,"x_max":826,"o":"m 826 949 l 826 340 q 731 74 826 168 q 466 -19 635 -19 q 201 74 297 -19 q 106 340 106 168 l 106 947 l 114 956 l 181 956 q 258 928 233 956 q 282 843 282 901 l 282 339 q 465 122 282 122 q 649 339 649 122 l 649 949 q 738 956 683 956 q 826 949 792 956 m 542 1165 q 616 1185 574 1185 q 690 1165 658 1185 q 704 1103 704 1144 q 690 1042 704 1061 q 616 1022 663 1022 q 542 1042 569 1022 q 525 1103 525 1063 q 542 1165 525 1143 m 238 1165 q 310 1185 267 1185 q 386 1165 354 1185 q 401 1102 401 1144 q 386 1042 401 1060 q 311 1022 358 1022 q 238 1042 264 1022 q 224 1103 224 1061 q 238 1165 224 1144 z "},"Ý":{"ha":710,"x_min":0,"x_max":710,"o":"m 429 663 l 543 949 q 619 956 572 956 q 701 943 667 956 l 710 932 l 443 297 l 443 0 q 354 -7 408 -7 q 267 0 300 -7 l 267 303 l 0 928 q 101 960 57 960 q 167 943 146 960 q 204 886 188 926 l 297 658 q 357 475 332 569 l 365 475 q 429 663 383 549 m 207 1097 l 500 1274 q 546 1215 524 1256 q 572 1138 568 1175 l 257 1011 q 224 1047 238 1022 q 207 1097 210 1072 z "},"Þ":{"ha":804,"x_min":118,"x_max":753,"o":"m 118 0 l 118 949 q 206 956 151 956 q 294 949 260 956 l 294 811 q 425 814 381 814 q 663 737 574 814 q 753 507 753 660 q 663 275 753 354 q 425 196 574 196 l 294 196 l 294 0 q 206 -7 260 -7 q 118 0 151 -7 m 294 333 l 414 335 q 535 385 500 335 q 571 506 571 435 q 535 626 571 576 q 414 675 500 675 l 294 675 l 294 333 z "},"ß":{"ha":888,"x_min":14,"x_max":846,"o":"m 140 0 l 140 526 l 21 525 q 14 592 14 557 q 21 660 14 628 l 140 658 l 140 699 q 226 901 140 831 q 456 971 311 971 q 689 894 601 971 q 776 689 776 818 q 754 582 776 640 l 751 582 l 754 581 q 676 542 703 569 q 650 485 650 515 q 693 418 650 456 l 744 371 q 846 183 846 274 q 772 37 846 93 q 592 -19 699 -19 q 401 21 485 -19 q 418 86 403 50 q 454 142 433 122 q 558 113 508 113 q 636 133 608 113 q 664 189 664 153 q 614 271 664 225 l 557 321 q 468 476 468 401 q 503 570 468 525 q 597 640 538 615 q 601 685 601 663 q 563 795 601 751 q 456 839 525 839 q 315 681 315 839 l 315 0 q 229 -7 274 -7 q 140 0 185 -7 z "},"à":{"ha":707,"x_min":53,"x_max":653,"o":"m 653 78 q 628 28 646 54 q 593 -11 611 3 q 467 69 507 -1 q 268 -19 375 -19 q 107 43 161 -19 q 53 188 53 106 q 128 363 53 304 q 322 422 204 422 q 443 417 386 422 l 443 458 q 338 568 443 568 q 125 518 263 568 q 79 642 85 561 q 379 704 229 704 q 549 646 483 704 q 614 469 614 588 l 614 186 q 653 78 614 110 m 304 113 q 443 179 376 113 l 443 303 q 338 308 394 308 q 251 279 281 308 q 222 206 222 250 q 244 137 222 161 q 304 113 267 113 m 263 1043 l 469 817 q 439 774 460 793 q 396 749 418 756 l 150 936 q 195 1001 163 971 q 263 1043 228 1032 z "},"á":{"ha":707,"x_min":53,"x_max":653,"o":"m 653 78 q 628 28 646 54 q 593 -11 611 3 q 467 69 507 -1 q 268 -19 375 -19 q 107 43 161 -19 q 53 188 53 106 q 128 363 53 304 q 322 422 204 422 q 443 417 386 422 l 443 458 q 338 568 443 568 q 125 518 263 568 q 79 642 85 561 q 379 704 229 704 q 549 646 483 704 q 614 469 614 588 l 614 186 q 653 78 614 110 m 304 113 q 443 179 376 113 l 443 303 q 338 308 394 308 q 251 279 281 308 q 222 206 222 250 q 244 137 222 161 q 304 113 267 113 m 229 817 l 435 1043 q 503 1001 471 1031 q 547 936 536 971 l 301 749 q 229 817 250 764 z "},"â":{"ha":707,"x_min":53,"x_max":653,"o":"m 653 78 q 628 28 646 54 q 593 -11 611 3 q 467 69 507 -1 q 268 -19 375 -19 q 107 43 161 -19 q 53 188 53 106 q 128 363 53 304 q 322 422 204 422 q 443 417 386 422 l 443 458 q 338 568 443 568 q 125 518 263 568 q 79 642 85 561 q 379 704 229 704 q 549 646 483 704 q 614 469 614 588 l 614 186 q 653 78 614 110 m 304 113 q 443 179 376 113 l 443 303 q 338 308 394 308 q 251 279 281 308 q 222 206 222 250 q 244 137 222 161 q 304 113 267 113 m 476 761 l 347 886 l 210 753 q 132 822 158 774 l 279 1008 q 347 1019 311 1019 q 422 1010 383 1019 l 554 835 q 476 761 533 783 z "},"ã":{"ha":707,"x_min":53,"x_max":653,"o":"m 653 78 q 628 28 646 54 q 593 -11 611 3 q 467 69 507 -1 q 268 -19 375 -19 q 107 43 161 -19 q 53 188 53 106 q 128 363 53 304 q 322 422 204 422 q 443 417 386 422 l 443 458 q 338 568 443 568 q 125 518 263 568 q 79 642 85 561 q 379 704 229 704 q 549 646 483 704 q 614 469 614 588 l 614 186 q 653 78 614 110 m 304 113 q 443 179 376 113 l 443 303 q 338 308 394 308 q 251 279 281 308 q 222 206 222 250 q 244 137 222 161 q 304 113 267 113 m 353 794 l 283 829 q 238 842 261 842 q 188 807 214 842 l 174 788 q 124 803 149 789 q 92 840 100 818 l 103 868 q 164 948 125 918 q 246 978 203 978 q 333 956 289 978 l 403 919 q 450 907 428 907 q 499 942 472 907 l 513 961 q 561 945 538 960 q 594 908 585 931 l 583 881 q 522 800 561 829 q 438 771 482 771 q 353 794 394 771 z "},"ä":{"ha":707,"x_min":53,"x_max":653,"o":"m 653 78 q 628 28 646 54 q 593 -11 611 3 q 467 69 507 -1 q 268 -19 375 -19 q 107 43 161 -19 q 53 188 53 106 q 128 363 53 304 q 322 422 204 422 q 443 417 386 422 l 443 458 q 338 568 443 568 q 125 518 263 568 q 79 642 85 561 q 379 704 229 704 q 549 646 483 704 q 614 469 614 588 l 614 186 q 653 78 614 110 m 304 113 q 443 179 376 113 l 443 303 q 338 308 394 308 q 251 279 281 308 q 222 206 222 250 q 244 137 222 161 q 304 113 267 113 m 400 796 q 389 856 389 826 q 400 917 389 886 q 476 936 433 936 q 553 917 519 936 q 564 855 564 890 q 553 796 564 819 q 476 778 521 778 q 400 796 432 778 m 133 796 q 122 856 122 822 q 133 917 122 890 q 210 936 168 936 q 286 917 253 936 q 297 856 297 886 q 286 796 297 825 q 210 778 254 778 q 133 796 165 778 z "},"å":{"ha":707,"x_min":53,"x_max":653,"o":"m 653 78 q 628 28 646 54 q 593 -11 611 3 q 467 69 507 -1 q 268 -19 375 -19 q 107 43 161 -19 q 53 188 53 106 q 128 363 53 304 q 322 422 204 422 q 443 417 386 422 l 443 458 q 338 568 443 568 q 125 518 263 568 q 79 642 85 561 q 379 704 229 704 q 549 646 483 704 q 614 469 614 588 l 614 186 q 653 78 614 110 m 304 113 q 443 179 376 113 l 443 303 q 338 308 394 308 q 251 279 281 308 q 222 206 222 250 q 244 137 222 161 q 304 113 267 113 m 343 750 q 303 750 343 750 q 214 798 264 750 q 164 916 164 846 q 214 1034 164 986 q 343 1082 264 1082 q 472 1034 422 1082 q 522 916 522 986 q 472 798 522 846 q 343 750 422 750 m 293 969 q 283 959 293 969 q 274 917 274 949 q 293 864 274 885 q 343 843 313 843 q 393 864 374 843 q 413 917 413 885 q 393 969 413 949 q 343 990 374 990 q 293 969 313 990 z "},"æ":{"ha":1071,"x_min":53,"x_max":1015,"o":"m 1001 289 l 615 289 q 652 162 619 207 q 763 117 685 117 q 947 165 840 117 q 996 60 988 125 q 733 -19 888 -19 q 504 89 579 -19 q 260 -19 399 -19 q 107 43 161 -19 q 53 189 53 106 q 128 363 53 304 q 322 422 204 422 q 443 415 374 422 l 443 460 q 339 568 443 568 q 125 518 256 568 q 79 642 85 561 q 358 704 229 704 q 546 628 486 704 q 745 708 624 708 q 941 625 867 708 q 1015 413 1015 542 q 1001 289 1015 349 m 304 113 q 460 193 392 113 q 443 303 444 243 q 337 308 393 308 q 251 280 281 308 q 222 207 222 251 q 244 138 222 163 q 304 113 267 113 m 735 583 q 614 411 625 583 l 853 411 l 853 426 q 824 540 853 496 q 735 583 796 583 z "},"ç":{"ha":656,"x_min":54,"x_max":611,"o":"m 265 -104 q 294 -15 279 -51 q 115 99 176 3 q 54 342 54 196 q 142 617 54 525 q 350 708 229 708 q 541 644 471 708 q 611 490 611 579 q 525 400 611 400 q 454 407 493 400 q 454 424 454 415 q 433 535 454 493 q 349 578 411 578 q 231 348 231 578 q 374 118 231 118 q 536 185 446 118 q 578 142 558 171 q 604 85 597 113 q 392 -17 519 0 q 378 -49 382 -33 q 474 -85 438 -51 q 511 -177 511 -119 q 462 -275 511 -235 q 338 -315 413 -315 q 221 -285 264 -315 q 253 -204 224 -239 q 319 -224 282 -224 q 378 -175 378 -224 q 363 -140 378 -154 q 329 -126 349 -126 q 293 -132 310 -126 q 265 -104 272 -125 z "},"è":{"ha":693,"x_min":54,"x_max":633,"o":"m 619 289 l 231 289 q 267 162 235 207 q 382 117 300 117 q 564 165 464 117 q 614 60 603 128 q 347 -19 503 -19 q 122 82 190 -19 q 54 344 54 183 q 129 607 54 506 q 344 708 204 708 q 558 624 483 708 q 633 413 633 540 q 619 289 633 349 m 351 583 q 229 411 238 583 l 471 411 l 471 428 q 442 540 471 497 q 351 583 413 583 m 275 1043 l 482 817 q 451 774 472 793 q 408 749 431 756 l 163 936 q 208 1001 175 971 q 275 1043 240 1032 z "},"é":{"ha":693,"x_min":54,"x_max":633,"o":"m 619 289 l 231 289 q 267 162 235 207 q 382 117 300 117 q 564 165 464 117 q 614 60 603 128 q 347 -19 503 -19 q 122 82 190 -19 q 54 344 54 183 q 129 607 54 506 q 344 708 204 708 q 558 624 483 708 q 633 413 633 540 q 619 289 633 349 m 351 583 q 229 411 238 583 l 471 411 l 471 428 q 442 540 471 497 q 351 583 413 583 m 240 817 l 446 1043 q 515 1001 482 1031 q 558 936 547 971 l 313 749 q 240 817 261 764 z "},"ê":{"ha":693,"x_min":54,"x_max":633,"o":"m 619 289 l 231 289 q 267 162 235 207 q 382 117 300 117 q 564 165 464 117 q 614 60 603 128 q 347 -19 503 -19 q 122 82 190 -19 q 54 344 54 183 q 129 607 54 506 q 344 708 204 708 q 558 624 483 708 q 633 413 633 540 q 619 289 633 349 m 351 583 q 229 411 238 583 l 471 411 l 471 428 q 442 540 471 497 q 351 583 413 583 m 488 761 l 358 886 l 221 753 q 143 822 169 774 l 290 1008 q 358 1019 322 1019 q 433 1010 394 1019 l 565 835 q 488 761 544 783 z "},"ë":{"ha":693,"x_min":54,"x_max":633,"o":"m 619 289 l 231 289 q 267 162 235 207 q 382 117 300 117 q 564 165 464 117 q 614 60 603 128 q 347 -19 503 -19 q 122 82 190 -19 q 54 344 54 183 q 129 607 54 506 q 344 708 204 708 q 558 624 483 708 q 633 413 633 540 q 619 289 633 349 m 351 583 q 229 411 238 583 l 471 411 l 471 428 q 442 540 471 497 q 351 583 413 583 m 411 796 q 400 856 400 826 q 411 917 400 886 q 488 936 444 936 q 564 917 531 936 q 575 855 575 890 q 564 796 575 819 q 488 778 532 778 q 411 796 443 778 m 144 796 q 133 856 133 822 q 144 917 133 890 q 222 936 179 936 q 297 917 264 936 q 308 856 308 886 q 297 796 308 825 q 221 778 265 778 q 144 796 176 778 z "},"ì":{"ha":385,"x_min":-18,"x_max":301,"o":"m 289 554 l 289 0 q 204 -7 250 -7 q 117 0 158 -7 l 117 490 q 54 565 117 565 l 38 565 q 31 625 31 589 q 38 688 31 661 q 139 693 88 693 l 161 693 q 255 656 221 693 q 289 554 289 618 m 94 1043 l 301 817 q 271 774 292 793 q 228 749 250 756 l -18 936 q 27 1001 -6 971 q 94 1043 60 1032 z "},"í":{"ha":385,"x_min":31,"x_max":379,"o":"m 289 554 l 289 0 q 204 -7 250 -7 q 117 0 158 -7 l 117 490 q 54 565 117 565 l 38 565 q 31 625 31 589 q 38 688 31 661 q 139 693 88 693 l 161 693 q 255 656 221 693 q 289 554 289 618 m 61 817 l 267 1043 q 335 1001 303 1031 q 379 936 368 971 l 133 749 q 61 817 82 764 z "},"î":{"ha":385,"x_min":-36,"x_max":386,"o":"m 289 554 l 289 0 q 204 -7 250 -7 q 117 0 158 -7 l 117 490 q 54 565 117 565 l 38 565 q 31 625 31 589 q 38 688 31 661 q 139 693 88 693 l 161 693 q 255 656 221 693 q 289 554 289 618 m 308 761 l 179 886 l 42 753 q -36 822 -10 774 l 111 1008 q 179 1019 143 1019 q 254 1010 215 1019 l 386 835 q 308 761 365 783 z "},"ï":{"ha":385,"x_min":-46,"x_max":396,"o":"m 289 554 l 289 0 q 204 -7 250 -7 q 117 0 158 -7 l 117 490 q 54 565 117 565 l 38 565 q 31 625 31 589 q 38 688 31 661 q 139 693 88 693 l 161 693 q 255 656 221 693 q 289 554 289 618 m 232 796 q 221 856 221 826 q 232 917 221 886 q 308 936 267 936 q 385 917 350 936 q 396 855 396 890 q 385 796 396 819 q 308 778 353 778 q 232 796 264 778 m -35 796 q -46 856 -46 822 q -35 917 -46 890 q 41 936 -1 936 q 118 917 83 936 q 129 856 129 886 q 118 796 129 825 q 42 778 86 778 q -35 796 -3 778 z "},"ð":{"ha":719,"x_min":51,"x_max":667,"o":"m 140 793 l 251 869 q 150 935 201 907 q 174 998 154 967 q 218 1042 194 1029 q 374 954 301 1006 l 375 954 l 493 1036 q 551 951 540 1001 l 456 886 q 667 343 667 678 q 568 60 667 157 q 359 -19 489 -19 q 150 60 229 -19 q 51 333 51 157 q 151 603 51 508 q 347 676 229 676 q 431 658 390 676 q 332 801 406 726 l 199 710 q 161 747 178 722 q 140 793 144 771 m 490 343 q 472 517 490 449 q 361 551 417 551 q 228 330 228 551 q 359 108 228 108 q 490 343 490 108 z "},"ñ":{"ha":758,"x_min":99,"x_max":693,"o":"m 665 465 l 665 157 q 693 26 665 72 q 591 -10 647 -10 q 514 17 535 -10 q 493 99 493 43 l 493 429 q 476 519 493 492 q 417 546 460 546 q 271 476 338 546 l 271 0 q 186 -7 232 -7 q 99 0 140 -7 l 99 688 l 108 696 l 172 696 q 267 613 251 696 q 469 701 368 701 q 617 636 569 701 q 665 465 665 571 m 397 794 l 328 829 q 282 842 306 842 q 232 807 258 842 l 218 788 q 169 803 193 789 q 136 840 144 818 l 147 868 q 208 948 169 918 q 290 978 247 978 q 378 956 333 978 l 447 919 q 494 907 472 907 q 543 942 517 907 l 557 961 q 606 945 582 960 q 639 908 629 931 l 628 881 q 566 800 606 829 q 483 771 526 771 q 397 794 439 771 z "},"ò":{"ha":724,"x_min":54,"x_max":669,"o":"m 571 629 q 669 344 669 531 q 571 60 669 158 q 362 -19 492 -19 q 153 60 232 -19 q 54 344 54 158 q 153 629 54 531 q 362 708 232 708 q 571 629 492 708 m 362 578 q 296 578 362 578 q 231 344 231 578 q 362 111 231 111 q 493 344 493 111 q 362 578 493 578 m 282 1043 l 489 817 q 458 774 479 793 q 415 749 438 756 l 169 936 q 215 1001 182 971 q 282 1043 247 1032 z "},"ó":{"ha":724,"x_min":54,"x_max":669,"o":"m 571 629 q 669 344 669 531 q 571 60 669 158 q 362 -19 492 -19 q 153 60 232 -19 q 54 344 54 158 q 153 629 54 531 q 362 708 232 708 q 571 629 492 708 m 362 578 q 296 578 362 578 q 231 344 231 578 q 362 111 231 111 q 493 344 493 111 q 362 578 493 578 m 247 817 l 453 1043 q 522 1001 489 1031 q 565 936 554 971 l 319 749 q 247 817 268 764 z "},"ô":{"ha":724,"x_min":54,"x_max":669,"o":"m 571 629 q 669 344 669 531 q 571 60 669 158 q 362 -19 492 -19 q 153 60 232 -19 q 54 344 54 158 q 153 629 54 531 q 362 708 232 708 q 571 629 492 708 m 362 578 q 296 578 362 578 q 231 344 231 578 q 362 111 231 111 q 493 344 493 111 q 362 578 493 578 m 494 761 l 365 886 l 228 753 q 150 822 176 774 l 297 1008 q 365 1019 329 1019 q 440 1010 401 1019 l 572 835 q 494 761 551 783 z "},"õ":{"ha":724,"x_min":54,"x_max":669,"o":"m 571 629 q 669 344 669 531 q 571 60 669 158 q 362 -19 492 -19 q 153 60 232 -19 q 54 344 54 158 q 153 629 54 531 q 362 708 232 708 q 571 629 492 708 m 362 578 q 296 578 362 578 q 231 344 231 578 q 362 111 231 111 q 493 344 493 111 q 362 578 493 578 m 371 794 l 301 829 q 256 842 279 842 q 206 807 232 842 l 192 788 q 142 803 167 789 q 110 840 118 818 l 121 868 q 182 948 143 918 q 264 978 221 978 q 351 956 307 978 l 421 919 q 468 907 446 907 q 517 942 490 907 l 531 961 q 579 945 556 960 q 613 908 603 931 l 601 881 q 540 800 579 829 q 456 771 500 771 q 371 794 413 771 z "},"ö":{"ha":724,"x_min":54,"x_max":669,"o":"m 571 629 q 669 344 669 531 q 571 60 669 158 q 362 -19 492 -19 q 153 60 232 -19 q 54 344 54 158 q 153 629 54 531 q 362 708 232 708 q 571 629 492 708 m 362 578 q 296 578 362 578 q 231 344 231 578 q 362 111 231 111 q 493 344 493 111 q 362 578 493 578 m 418 796 q 407 856 407 826 q 418 917 407 886 q 494 936 451 936 q 571 917 538 936 q 582 855 582 890 q 571 796 582 819 q 494 778 539 778 q 418 796 450 778 m 151 796 q 140 856 140 822 q 151 917 140 890 q 228 936 186 936 q 304 917 271 936 q 315 856 315 886 q 304 796 315 825 q 228 778 272 778 q 151 796 183 778 z "},"÷":{"ha":736,"x_min":69,"x_max":667,"o":"m 288 594 q 275 658 275 619 q 288 722 275 697 q 369 740 319 740 q 447 722 419 740 q 461 658 461 699 q 447 594 461 618 q 368 576 422 576 q 288 594 314 576 m 288 97 q 275 162 275 122 q 288 226 275 201 q 369 244 319 244 q 447 226 419 244 q 461 162 461 203 q 447 97 461 121 q 368 79 419 79 q 288 97 317 79 m 660 340 l 76 340 q 69 411 69 368 q 76 483 69 454 l 660 483 q 667 411 667 454 q 660 340 667 368 z "},"ø":{"ha":726,"x_min":56,"x_max":671,"o":"m 574 628 q 671 343 671 531 q 574 60 671 156 q 363 -19 494 -19 q 239 3 299 -19 l 190 -81 q 99 -29 131 -68 l 150 61 q 56 344 56 156 q 153 629 56 532 q 363 708 232 708 q 485 686 432 708 l 533 769 q 625 719 592 757 l 574 628 m 510 344 q 492 479 510 421 l 303 117 q 364 104 328 104 q 510 344 510 104 m 217 344 q 233 213 217 264 l 422 572 q 364 585 397 585 q 217 344 217 585 z "},"ù":{"ha":761,"x_min":67,"x_max":699,"o":"m 93 222 l 93 532 q 67 661 93 615 q 166 699 108 699 q 244 672 224 699 q 265 590 265 646 l 265 260 q 282 169 265 196 q 342 142 299 142 q 488 211 421 142 l 488 689 q 574 696 526 696 q 660 689 621 696 l 660 196 q 699 76 660 107 q 640 -11 686 22 q 506 88 542 1 q 282 -12 399 -12 q 141 52 189 -12 q 93 222 93 117 m 290 1043 l 497 817 q 467 774 488 793 q 424 749 446 756 l 178 936 q 223 1001 190 971 q 290 1043 256 1032 z "},"ú":{"ha":761,"x_min":67,"x_max":699,"o":"m 93 222 l 93 532 q 67 661 93 615 q 166 699 108 699 q 244 672 224 699 q 265 590 265 646 l 265 260 q 282 169 265 196 q 342 142 299 142 q 488 211 421 142 l 488 689 q 574 696 526 696 q 660 689 621 696 l 660 196 q 699 76 660 107 q 640 -11 686 22 q 506 88 542 1 q 282 -12 399 -12 q 141 52 189 -12 q 93 222 93 117 m 257 817 l 463 1043 q 531 1001 499 1031 q 575 936 564 971 l 329 749 q 257 817 278 764 z "},"û":{"ha":761,"x_min":67,"x_max":699,"o":"m 93 222 l 93 532 q 67 661 93 615 q 166 699 108 699 q 244 672 224 699 q 265 590 265 646 l 265 260 q 282 169 265 196 q 342 142 299 142 q 488 211 421 142 l 488 689 q 574 696 526 696 q 660 689 621 696 l 660 196 q 699 76 660 107 q 640 -11 686 22 q 506 88 542 1 q 282 -12 399 -12 q 141 52 189 -12 q 93 222 93 117 m 504 761 l 375 886 l 238 753 q 160 822 186 774 l 307 1008 q 375 1019 339 1019 q 450 1010 411 1019 l 582 835 q 504 761 561 783 z "},"ü":{"ha":761,"x_min":67,"x_max":699,"o":"m 93 222 l 93 532 q 67 661 93 615 q 166 699 108 699 q 244 672 224 699 q 265 590 265 646 l 265 260 q 282 169 265 196 q 342 142 299 142 q 488 211 421 142 l 488 689 q 574 696 526 696 q 660 689 621 696 l 660 196 q 699 76 660 107 q 640 -11 686 22 q 506 88 542 1 q 282 -12 399 -12 q 141 52 189 -12 q 93 222 93 117 m 428 796 q 417 856 417 826 q 428 917 417 886 q 504 936 461 936 q 581 917 547 936 q 592 855 592 890 q 581 796 592 819 q 504 778 549 778 q 428 796 460 778 m 161 796 q 150 856 150 822 q 161 917 150 890 q 238 936 194 936 q 314 917 281 936 q 325 856 325 886 q 314 796 325 825 q 238 778 282 778 q 161 796 193 778 z "},"ý":{"ha":665,"x_min":4,"x_max":653,"o":"m 653 672 l 474 21 q 359 -226 428 -147 q 153 -304 290 -304 q 6 -279 78 -304 q 6 -256 6 -272 q 15 -208 6 -240 q 42 -156 24 -175 q 157 -175 100 -175 q 307 -26 265 -175 l 313 -8 q 233 11 263 -7 q 190 72 203 29 l 17 675 q 122 700 72 700 q 207 625 188 700 l 289 325 q 333 129 293 313 q 346 119 335 119 l 486 689 q 564 696 518 696 q 647 683 610 696 l 653 672 m 218 817 l 424 1043 q 492 1001 460 1031 q 536 936 525 971 l 290 749 q 218 817 239 764 z "},"þ":{"ha":736,"x_min":99,"x_max":682,"o":"m 447 701 q 500 701 447 701 q 617 607 553 701 q 682 345 682 513 q 603 83 682 178 q 415 -12 524 -12 q 264 26 339 -12 l 264 -193 q 244 -276 264 -251 q 171 -300 224 -300 l 108 -300 l 99 -290 l 99 1013 l 108 1022 l 171 1022 q 244 998 224 1022 q 264 915 264 974 l 264 633 q 447 701 342 701 m 397 561 q 264 483 319 561 l 264 164 q 385 119 329 119 q 474 179 440 119 q 507 349 507 239 q 476 510 507 458 q 397 561 446 561 z "},"ÿ":{"ha":665,"x_min":4,"x_max":653,"o":"m 653 672 l 474 21 q 359 -226 428 -147 q 153 -304 290 -304 q 6 -279 78 -304 q 6 -256 6 -272 q 15 -208 6 -240 q 42 -156 24 -175 q 157 -175 100 -175 q 307 -26 265 -175 l 313 -8 q 233 11 263 -7 q 190 72 203 29 l 17 675 q 122 700 72 700 q 207 625 188 700 l 289 325 q 333 129 293 313 q 346 119 335 119 l 486 689 q 564 696 518 696 q 647 683 610 696 l 653 672 m 388 796 q 376 856 376 826 q 388 917 376 886 q 464 936 422 936 q 540 917 506 936 q 551 855 551 890 q 540 796 551 819 q 464 778 508 778 q 388 796 419 778 m 121 796 q 110 856 110 822 q 121 917 110 890 q 197 936 154 936 q 274 917 239 936 q 285 856 285 886 q 274 796 285 825 q 197 778 242 778 q 121 796 153 778 z "},"Ą":{"ha":864,"x_min":21,"x_max":899,"o":"m 328 217 l 257 218 l 189 -1 q 110 -8 161 -8 q 28 4 58 -8 l 21 13 l 332 949 q 438 956 378 956 q 535 947 497 956 l 842 11 q 721 -133 721 -58 q 739 -176 721 -161 q 790 -192 757 -192 q 861 -169 822 -192 q 899 -250 896 -200 q 758 -303 839 -303 q 633 -267 676 -303 q 589 -169 589 -231 q 683 1 589 -79 q 635 83 653 19 l 593 218 l 521 217 l 328 217 m 300 360 l 365 361 l 489 361 q 516 360 493 361 q 550 360 539 360 l 503 515 q 428 781 464 639 l 421 781 q 361 556 404 696 l 300 360 z "},"ą":{"ha":749,"x_min":53,"x_max":693,"o":"m 654 -169 q 693 -250 689 -199 q 550 -303 631 -303 q 426 -267 469 -303 q 383 -169 383 -231 q 506 26 383 -61 q 468 71 483 44 q 268 -19 375 -19 q 107 43 161 -19 q 53 188 53 106 q 128 363 53 304 q 322 422 204 422 q 443 417 386 422 l 443 458 q 338 568 443 568 q 125 518 263 568 q 79 642 85 561 q 379 704 229 704 q 549 646 483 704 q 614 469 614 588 l 614 186 q 658 79 614 115 q 589 -17 643 33 q 514 -133 514 -82 q 532 -176 514 -161 q 583 -192 550 -192 q 654 -169 615 -192 m 304 113 q 443 179 376 113 l 443 303 q 338 308 394 308 q 251 279 281 308 q 222 206 222 250 q 244 137 222 161 q 304 113 267 113 z "},"Ć":{"ha":842,"x_min":61,"x_max":794,"o":"m 625 601 q 625 613 625 607 q 584 763 625 700 q 447 826 543 826 q 247 469 247 826 q 303 222 247 308 q 467 135 360 135 q 706 238 574 135 q 758 185 733 218 q 790 124 783 153 q 632 21 728 61 q 433 -19 536 -19 q 257 22 331 -19 q 142 136 183 64 q 61 471 61 274 q 172 842 61 717 q 443 968 282 968 q 699 887 604 968 q 794 690 794 806 q 694 592 794 592 q 625 601 658 592 m 296 1099 l 589 1275 q 635 1217 613 1257 q 661 1139 657 1176 l 346 1013 q 313 1049 326 1024 q 296 1099 299 1074 z "},"ć":{"ha":656,"x_min":54,"x_max":611,"o":"m 454 407 q 454 424 454 415 q 433 535 454 493 q 349 578 411 578 q 231 348 231 578 q 374 118 231 118 q 536 185 446 118 q 578 142 558 171 q 604 85 597 113 q 351 -19 500 -19 q 128 81 203 -19 q 54 353 54 181 q 142 617 54 525 q 350 708 229 708 q 541 644 471 708 q 611 490 611 579 q 525 400 611 400 q 454 407 493 400 m 236 817 l 442 1043 q 510 1001 478 1031 q 554 936 543 971 l 308 749 q 236 817 257 764 z "},"Č":{"ha":842,"x_min":61,"x_max":794,"o":"m 625 601 q 625 613 625 607 q 584 763 625 700 q 447 826 543 826 q 247 469 247 826 q 303 222 247 308 q 467 135 360 135 q 706 238 574 135 q 758 185 733 218 q 790 124 783 153 q 632 21 728 61 q 433 -19 536 -19 q 257 22 331 -19 q 142 136 183 64 q 61 471 61 274 q 172 842 61 717 q 443 968 282 968 q 699 887 604 968 q 794 690 794 806 q 694 592 794 592 q 625 601 658 592 m 285 1256 l 444 1151 l 607 1268 q 651 1240 628 1261 q 681 1196 675 1219 l 518 1033 q 446 1025 483 1025 q 369 1032 408 1025 l 214 1182 q 242 1227 221 1207 q 285 1256 264 1247 z "},"č":{"ha":656,"x_min":54,"x_max":611,"o":"m 454 407 q 454 424 454 415 q 433 535 454 493 q 349 578 411 578 q 231 348 231 578 q 374 118 231 118 q 536 185 446 118 q 578 142 558 171 q 604 85 597 113 q 351 -19 500 -19 q 128 81 203 -19 q 54 353 54 181 q 142 617 54 525 q 350 708 229 708 q 541 644 471 708 q 611 490 611 579 q 525 400 611 400 q 454 407 493 400 m 218 1022 l 347 899 l 486 1033 q 564 964 535 1015 l 415 776 q 365 765 385 765 q 272 775 307 765 l 140 950 q 174 995 151 975 q 218 1022 197 1015 z "},"Ď":{"ha":911,"x_min":118,"x_max":847,"o":"m 697 885 q 816 714 785 814 q 847 474 847 614 q 816 234 847 335 q 697 63 785 133 q 584 10 654 28 q 442 -7 514 -7 q 128 -1 369 -7 l 118 7 l 118 942 l 128 950 q 450 956 288 956 q 584 938 514 956 q 697 885 654 919 m 628 247 q 639 273 628 247 q 658 353 650 300 q 665 474 665 407 q 658 595 665 542 q 628 702 650 649 q 561 785 607 756 q 433 815 515 815 q 294 817 351 815 l 294 133 l 449 133 q 561 163 515 133 q 628 247 607 193 m 271 1254 l 431 1150 l 593 1267 q 638 1239 614 1260 q 667 1194 661 1218 l 504 1032 q 432 1024 469 1024 q 356 1031 394 1024 l 200 1181 q 228 1226 207 1206 q 271 1254 250 1246 z "},"ď":{"ha":865,"x_min":54,"x_max":890,"o":"m 297 -19 q 238 -19 297 -19 q 117 77 179 -19 q 54 342 54 174 q 134 606 54 510 q 326 701 214 701 q 472 663 397 701 l 472 1013 l 481 1022 l 547 1022 q 619 998 599 1022 q 640 915 640 974 l 640 197 q 679 78 640 111 q 655 28 672 54 q 619 -11 638 3 q 496 72 532 1 q 297 -19 414 -19 m 340 122 q 472 197 417 122 l 472 525 q 349 568 401 568 q 263 508 296 568 q 231 338 231 447 q 261 175 231 228 q 340 122 292 122 m 822 775 q 776 769 804 769 q 724 782 749 769 l 739 1090 q 779 1096 758 1096 q 890 1068 853 1096 l 822 775 z "},"Ę":{"ha":793,"x_min":117,"x_max":731,"o":"m 292 226 l 290 144 q 386 147 349 147 l 731 147 q 728 82 731 104 q 669 7 717 25 q 576 -58 606 -21 q 546 -128 546 -96 q 563 -176 546 -161 q 613 -192 581 -192 q 685 -169 646 -192 q 724 -250 722 -201 q 581 -303 661 -303 q 457 -267 500 -303 q 414 -168 414 -231 q 506 -3 414 -72 l 218 -3 q 144 26 171 -3 q 117 104 117 54 l 117 939 l 126 949 l 700 949 q 707 880 707 915 q 693 800 707 844 l 290 800 l 292 706 l 292 550 q 381 551 325 551 l 622 551 q 632 478 632 518 q 622 406 632 439 l 381 406 q 292 407 325 406 l 292 226 z "},"ę":{"ha":693,"x_min":54,"x_max":633,"o":"m 619 289 l 231 289 q 267 162 235 207 q 382 117 300 117 q 564 165 464 117 q 614 60 603 128 q 525 13 569 29 q 429 -133 429 -57 q 447 -176 429 -161 q 498 -192 465 -192 q 569 -169 531 -192 q 607 -250 604 -200 q 466 -303 547 -303 q 342 -266 385 -303 q 299 -159 299 -229 q 376 -18 299 -89 q 349 -19 367 -19 q 122 82 190 -19 q 54 344 54 183 q 129 607 54 506 q 344 708 204 708 q 558 624 483 708 q 633 413 633 540 q 619 289 633 349 m 351 583 q 229 411 238 583 l 471 411 l 471 428 q 442 540 471 497 q 351 583 413 583 z "},"Ě":{"ha":790,"x_min":117,"x_max":731,"o":"m 292 226 l 290 144 q 386 147 349 147 l 731 147 q 728 82 731 104 q 614 -3 713 -3 l 218 -3 q 144 26 171 -3 q 117 104 117 54 l 117 939 l 126 949 l 700 949 q 707 880 707 915 q 693 800 707 844 l 290 800 l 292 706 l 292 550 q 381 551 325 551 l 622 551 q 632 478 632 518 q 622 406 632 439 l 381 406 q 292 407 325 406 l 292 226 m 251 1254 l 411 1150 l 574 1267 q 618 1239 594 1260 q 647 1194 642 1218 l 485 1032 q 413 1024 450 1024 q 336 1031 375 1024 l 181 1181 q 209 1226 188 1206 q 251 1254 231 1246 z "},"ě":{"ha":693,"x_min":54,"x_max":633,"o":"m 619 289 l 231 289 q 267 162 235 207 q 382 117 300 117 q 564 165 464 117 q 614 60 603 128 q 347 -19 503 -19 q 122 82 190 -19 q 54 344 54 183 q 129 607 54 506 q 344 708 204 708 q 558 624 483 708 q 633 413 633 540 q 619 289 633 349 m 351 583 q 229 411 238 583 l 471 411 l 471 428 q 442 540 471 497 q 351 583 413 583 m 222 1022 l 351 899 l 490 1033 q 568 964 539 1015 l 419 776 q 369 765 389 765 q 276 775 311 765 l 144 950 q 178 995 156 975 q 222 1022 201 1015 z "},"Ħ":{"ha":956,"x_min":21,"x_max":935,"o":"m 300 414 l 301 311 l 301 0 q 212 -7 265 -7 q 124 0 158 -7 l 124 683 l 29 683 q 21 749 21 710 q 29 815 21 788 l 124 815 l 124 949 q 212 956 158 956 q 301 949 265 956 l 301 815 l 654 815 l 654 949 q 743 956 689 956 q 832 949 797 956 l 832 815 l 928 815 q 935 749 935 786 q 928 683 935 711 l 832 683 l 832 0 q 743 -7 796 -7 q 654 0 690 -7 l 654 311 l 656 414 l 581 413 l 375 413 l 300 414 m 300 558 l 375 560 l 581 560 l 656 558 l 654 664 l 654 683 l 301 683 l 301 664 l 300 558 z "},"ħ":{"ha":758,"x_min":-4,"x_max":693,"o":"m 271 915 l 271 893 l 483 897 q 492 839 492 864 q 483 783 492 814 l 271 786 l 271 614 q 469 700 369 700 q 617 635 569 700 q 665 465 665 571 l 665 157 q 693 26 665 72 q 592 -10 650 -10 q 514 17 535 -10 q 493 99 493 43 l 493 428 q 477 519 493 492 q 418 546 461 546 q 271 474 339 546 l 271 0 q 188 -7 232 -7 q 103 0 144 -7 l 103 785 l 3 783 q -4 840 -4 810 q 3 897 -4 869 l 103 894 l 103 1013 l 113 1022 l 178 1022 q 251 998 231 1022 q 271 915 271 974 z "},"Ĩ":{"ha":421,"x_min":-50,"x_max":472,"o":"m 122 0 l 122 949 q 210 956 156 956 q 299 949 264 956 l 299 0 q 210 -7 264 -7 q 122 0 156 -7 m 221 1053 l 149 1088 q 101 1100 126 1100 q 50 1067 75 1100 l 36 1047 q -16 1063 10 1049 q -50 1100 -42 1078 l -39 1126 q 25 1206 -15 1176 q 111 1236 65 1236 q 201 1213 157 1236 l 274 1178 q 322 1165 299 1165 q 372 1200 346 1165 l 386 1219 q 438 1203 413 1218 q 472 1167 463 1188 l 461 1140 q 307 1031 410 1031 q 221 1053 265 1031 z "},"ĩ":{"ha":385,"x_min":-76,"x_max":426,"o":"m 289 554 l 289 0 q 204 -7 250 -7 q 117 0 158 -7 l 117 490 q 54 565 117 565 l 38 565 q 31 625 31 589 q 38 688 31 661 q 139 693 88 693 l 161 693 q 255 656 221 693 q 289 554 289 618 m 185 794 l 115 829 q 69 842 93 842 q 19 807 46 842 l 6 788 q -44 803 -19 789 q -76 840 -68 818 l -65 868 q -4 948 -43 918 q 78 978 35 978 q 165 956 121 978 l 235 919 q 282 907 260 907 q 331 942 304 907 l 344 961 q 393 945 369 960 q 426 908 417 931 l 415 881 q 353 800 393 829 q 270 771 314 771 q 185 794 226 771 z "},"ı":{"ha":392,"x_min":36,"x_max":294,"o":"m 294 554 l 294 0 q 210 -7 256 -7 q 122 0 164 -7 l 122 490 q 60 565 122 565 l 43 565 q 36 625 36 589 q 43 688 36 661 q 144 693 93 693 l 167 693 q 260 656 226 693 q 294 554 294 618 z "},"Ĳ":{"ha":1050,"x_min":122,"x_max":947,"o":"m 122 0 l 122 949 q 210 956 156 956 q 299 949 264 956 l 299 0 q 210 -7 264 -7 q 122 0 156 -7 m 492 178 q 636 133 564 133 q 739 181 708 133 q 769 332 769 228 l 769 949 q 858 956 804 956 q 947 949 913 956 l 947 353 q 861 54 947 135 q 656 -14 789 -14 q 428 46 524 -14 q 492 178 442 124 z "},"ĳ":{"ha":783,"x_min":36,"x_max":688,"o":"m 294 554 l 294 0 q 210 -7 256 -7 q 122 0 164 -7 l 122 490 q 60 565 122 565 l 43 565 q 36 625 36 589 q 43 688 36 661 q 144 693 93 693 l 167 693 q 260 656 226 693 q 294 554 294 618 m 93 814 q 79 883 79 846 q 93 951 79 919 q 183 971 129 971 q 268 951 236 971 q 282 883 282 919 q 268 814 282 846 q 178 794 236 794 q 93 814 121 794 m 688 554 l 688 31 q 670 -143 688 -90 q 628 -222 653 -196 q 461 -306 576 -279 q 413 -200 419 -268 q 494 -136 472 -171 q 517 -29 517 -101 l 517 490 q 454 565 517 565 l 425 565 q 418 625 418 589 q 425 688 418 661 q 539 693 481 693 l 563 693 q 654 656 621 693 q 688 554 688 619 m 483 814 q 469 883 469 846 q 483 951 469 919 q 573 971 519 971 q 658 951 626 971 q 672 883 672 919 q 658 814 672 846 q 569 794 626 794 q 483 814 511 794 z "},"Ĵ":{"ha":635,"x_min":14,"x_max":675,"o":"m 78 178 q 222 133 150 133 q 325 181 294 133 q 356 332 356 228 l 356 949 q 444 956 390 956 q 533 949 499 956 l 533 353 q 447 54 533 135 q 242 -14 375 -14 q 14 46 110 -14 q 78 178 28 124 m 603 1022 l 444 1126 l 282 1010 q 238 1039 261 1017 q 210 1083 215 1061 l 369 1244 q 442 1253 406 1253 q 518 1246 479 1253 l 675 1096 q 645 1051 667 1071 q 603 1022 624 1031 z "},"ĵ":{"ha":390,"x_min":-32,"x_max":390,"o":"m 296 554 l 296 31 q 278 -143 296 -90 q 236 -222 261 -196 q 69 -306 185 -279 q 21 -200 28 -268 q 103 -136 81 -171 q 125 -29 125 -101 l 125 490 q 63 565 125 565 l 33 565 q 26 625 26 589 q 33 688 26 661 q 147 693 89 693 l 171 693 q 263 656 229 693 q 296 554 296 619 m 313 761 l 183 886 l 46 753 q -32 822 -6 774 l 115 1008 q 183 1019 147 1019 q 258 1010 219 1019 l 390 835 q 313 761 369 783 z "},"Ķ":{"ha":842,"x_min":118,"x_max":824,"o":"m 824 44 q 706 -10 786 -10 q 635 14 658 -10 q 593 94 613 38 l 528 282 q 467 385 501 356 q 376 415 433 415 q 294 413 364 415 l 294 0 q 206 -7 260 -7 q 118 0 151 -7 l 118 949 q 206 956 151 956 q 294 949 260 956 l 294 564 l 356 565 q 389 574 378 565 q 413 607 400 582 l 574 888 q 613 939 593 924 q 678 954 633 954 q 775 950 722 954 l 786 936 l 592 594 q 528 513 565 546 q 628 460 593 500 q 690 347 664 419 l 758 157 q 824 44 786 78 m 371 -101 q 457 -72 411 -72 q 529 -82 503 -72 q 543 -158 543 -110 q 493 -292 543 -233 q 356 -381 443 -351 q 301 -310 311 -367 q 389 -174 389 -256 q 371 -101 389 -135 z "},"ķ":{"ha":708,"x_min":99,"x_max":690,"o":"m 582 265 l 624 156 q 690 43 654 68 q 575 -10 643 -10 q 515 10 535 -10 q 476 76 494 29 l 426 207 q 385 274 407 257 q 333 290 364 290 q 267 288 303 290 l 267 0 q 184 -7 228 -7 q 99 0 140 -7 l 99 1013 l 108 1022 l 174 1022 q 247 998 226 1022 q 267 915 267 974 l 267 431 l 304 432 q 340 454 325 432 l 442 625 q 544 693 481 693 q 640 692 608 693 l 649 681 l 514 453 q 458 389 489 410 q 582 265 543 363 m 303 -101 q 389 -72 343 -72 q 461 -82 435 -72 q 475 -158 475 -110 q 425 -292 475 -233 q 288 -381 375 -351 q 233 -310 243 -367 q 321 -174 321 -256 q 303 -101 321 -135 z "},"ĸ":{"ha":708,"x_min":99,"x_max":690,"o":"m 582 265 l 624 156 q 690 43 654 68 q 575 -10 643 -10 q 515 10 535 -10 q 476 76 494 29 l 426 207 q 385 274 407 257 q 333 290 364 290 q 267 288 303 290 l 267 0 q 184 -7 228 -7 q 99 0 140 -7 l 99 688 l 108 696 l 174 696 q 247 672 226 696 q 267 589 267 647 l 267 431 l 304 432 q 340 454 325 432 l 442 625 q 544 693 481 693 q 640 692 608 693 l 649 681 l 514 453 q 458 389 489 410 q 582 265 543 363 z "},"Ŀ":{"ha":717,"x_min":117,"x_max":682,"o":"m 419 150 l 682 150 q 678 83 682 104 q 563 -3 663 -3 l 219 -3 q 144 26 172 -3 q 117 104 117 54 l 117 947 l 126 956 l 192 956 q 269 929 244 956 q 294 843 294 903 l 294 146 q 419 150 361 150 m 479 425 q 467 495 467 453 q 479 568 467 538 q 561 588 514 588 q 640 568 608 588 q 651 494 651 540 q 640 425 651 449 q 561 404 614 404 q 479 425 508 404 z "},"ŀ":{"ha":514,"x_min":97,"x_max":529,"o":"m 322 128 l 368 128 q 382 54 382 86 q 378 6 382 22 q 247 -7 297 -7 q 97 156 97 -7 l 97 1013 l 106 1022 l 172 1022 q 244 998 224 1022 q 265 915 265 974 l 265 190 q 322 128 265 128 m 357 425 q 344 495 344 453 q 357 568 344 538 q 439 588 392 588 q 518 568 486 588 q 529 494 529 540 q 518 425 529 449 q 439 404 492 404 q 357 425 386 404 z "},"Ł":{"ha":728,"x_min":8,"x_max":694,"o":"m 306 843 l 306 579 l 538 660 l 550 653 q 561 589 561 622 q 554 521 561 556 l 306 439 l 306 146 q 431 150 372 150 l 694 150 q 689 83 694 111 q 574 -3 674 -3 l 231 -3 q 156 26 183 -3 q 128 104 128 54 l 128 383 l 32 350 l 19 357 q 10 419 10 386 q 17 489 10 453 l 128 526 l 128 947 l 138 956 l 204 956 q 281 928 257 956 q 306 843 306 901 z "},"ł":{"ha":478,"x_min":22,"x_max":438,"o":"m 365 128 l 411 128 q 425 54 425 92 q 422 6 425 17 q 292 -7 342 -7 q 178 33 214 -7 q 142 156 142 72 l 142 401 l 46 353 l 33 360 q 24 422 24 390 q 31 486 24 454 l 142 542 l 142 1013 l 150 1022 l 215 1022 q 288 998 267 1022 q 308 915 308 974 l 308 626 l 415 682 l 428 675 q 438 615 438 647 q 431 549 438 583 l 308 486 l 308 190 q 365 128 308 128 z "},"Ń":{"ha":953,"x_min":118,"x_max":835,"o":"m 826 956 l 835 947 l 835 3 q 733 -7 796 -7 q 624 0 671 -7 l 358 550 q 274 743 324 621 l 268 742 q 282 372 282 568 l 282 0 q 199 -7 246 -7 q 118 0 153 -7 l 118 946 q 219 956 157 956 q 326 949 281 956 l 589 400 q 681 196 625 325 l 685 197 q 671 569 671 394 l 671 847 q 693 931 671 906 q 768 956 715 956 l 826 956 m 328 1097 l 621 1274 q 667 1215 644 1256 q 693 1138 689 1175 l 378 1011 q 344 1047 358 1022 q 328 1097 331 1072 z "},"ń":{"ha":758,"x_min":99,"x_max":693,"o":"m 665 465 l 665 157 q 693 26 665 72 q 591 -10 647 -10 q 514 17 535 -10 q 493 99 493 43 l 493 429 q 476 519 493 492 q 417 546 460 546 q 271 476 338 546 l 271 0 q 186 -7 232 -7 q 99 0 140 -7 l 99 688 l 108 696 l 172 696 q 267 613 251 696 q 469 701 368 701 q 617 636 569 701 q 665 465 665 571 m 274 817 l 479 1043 q 548 1001 515 1031 q 592 936 581 971 l 346 749 q 274 817 294 764 z "},"Ň":{"ha":953,"x_min":118,"x_max":835,"o":"m 826 956 l 835 947 l 835 3 q 733 -7 796 -7 q 624 0 671 -7 l 358 550 q 274 743 324 621 l 268 742 q 282 372 282 568 l 282 0 q 199 -7 246 -7 q 118 0 153 -7 l 118 946 q 219 956 157 956 q 326 949 281 956 l 589 400 q 681 196 625 325 l 685 197 q 671 569 671 394 l 671 847 q 693 931 671 906 q 768 956 715 956 l 826 956 m 317 1254 l 476 1150 l 639 1267 q 683 1239 660 1260 q 713 1194 707 1218 l 550 1032 q 478 1024 515 1024 q 401 1031 440 1024 l 246 1181 q 274 1226 253 1206 q 317 1254 296 1246 z "},"ň":{"ha":758,"x_min":99,"x_max":693,"o":"m 665 465 l 665 157 q 693 26 665 72 q 591 -10 647 -10 q 514 17 535 -10 q 493 99 493 43 l 493 429 q 476 519 493 492 q 417 546 460 546 q 271 476 338 546 l 271 0 q 186 -7 232 -7 q 99 0 140 -7 l 99 688 l 108 696 l 172 696 q 267 613 251 696 q 469 701 368 701 q 617 636 569 701 q 665 465 665 571 m 256 1022 l 385 899 l 524 1033 q 601 964 572 1015 l 453 776 q 403 765 422 765 q 310 775 344 765 l 178 950 q 212 995 189 975 q 256 1022 235 1015 z "},"Œ":{"ha":1256,"x_min":61,"x_max":1206,"o":"m 765 226 l 764 144 q 861 147 822 147 l 1206 147 q 1201 83 1206 104 q 1089 -1 1189 -1 l 650 -1 q 461 -19 529 -19 q 211 65 313 -19 q 61 474 61 193 q 211 883 61 756 q 461 968 313 968 q 649 949 515 968 l 1175 949 q 1182 878 1182 915 q 1167 800 1182 842 l 764 800 l 765 706 l 765 550 q 856 551 799 551 l 1097 551 q 1107 478 1107 518 q 1097 406 1107 439 l 856 406 q 765 407 799 406 l 765 226 m 461 119 q 594 139 519 119 l 594 810 q 461 829 519 829 q 244 474 244 829 q 461 119 244 119 z "},"œ":{"ha":1136,"x_min":54,"x_max":1079,"o":"m 1065 289 l 679 289 q 716 162 683 207 q 828 117 749 117 q 1011 165 908 117 q 1061 60 1050 126 q 800 -19 950 -19 q 581 79 650 -19 q 369 -19 507 -19 q 153 60 232 -19 q 54 344 54 157 q 153 629 54 531 q 370 708 232 708 q 583 604 508 708 q 792 708 654 708 q 1005 625 931 708 q 1079 413 1079 542 q 1065 289 1079 349 m 362 578 q 296 578 362 578 q 231 344 231 578 q 362 111 231 111 q 493 344 493 111 q 362 578 493 578 m 800 583 q 678 411 689 583 l 917 411 l 917 426 q 888 540 917 496 q 800 583 860 583 z "},"Ŕ":{"ha":842,"x_min":118,"x_max":810,"o":"m 764 664 q 713 503 764 571 q 589 410 663 436 q 690 289 657 386 l 744 143 q 810 43 771 72 q 690 -11 771 -11 q 622 13 644 -11 q 579 94 599 38 l 517 265 q 470 342 499 315 q 385 368 442 368 l 293 368 l 293 0 q 205 -7 258 -7 q 118 0 151 -7 l 118 942 l 128 950 q 439 956 347 956 q 676 881 588 956 q 764 664 764 806 m 293 819 l 293 507 q 428 510 393 510 q 582 664 582 510 q 428 818 582 818 q 293 819 338 818 m 265 1097 l 558 1274 q 604 1215 582 1256 q 631 1138 626 1175 l 315 1011 q 282 1047 296 1022 q 265 1097 268 1072 z "},"ŕ":{"ha":526,"x_min":58,"x_max":522,"o":"m 58 608 q 81 659 64 632 q 117 699 99 686 q 263 575 225 682 q 442 699 318 699 q 522 689 474 699 q 481 528 522 599 q 418 536 460 533 q 282 446 333 536 l 282 0 q 197 -7 243 -7 q 110 0 151 -7 l 110 465 q 58 608 110 567 m 171 817 l 376 1043 q 445 1001 413 1031 q 489 936 478 971 l 243 749 q 171 817 192 764 z "},"Ŗ":{"ha":842,"x_min":118,"x_max":810,"o":"m 764 664 q 713 503 764 571 q 589 410 663 436 q 690 289 657 386 l 744 143 q 810 43 771 72 q 690 -11 771 -11 q 622 13 644 -11 q 579 94 599 38 l 517 265 q 470 342 499 315 q 385 368 442 368 l 293 368 l 293 0 q 205 -7 258 -7 q 118 0 151 -7 l 118 942 l 128 950 q 439 956 347 956 q 676 881 588 956 q 764 664 764 806 m 293 819 l 293 507 q 428 510 393 510 q 582 664 582 510 q 428 818 582 818 q 293 819 338 818 m 368 -101 q 454 -72 408 -72 q 526 -82 500 -72 q 540 -158 540 -110 q 490 -292 540 -233 q 353 -381 440 -351 q 299 -310 308 -367 q 386 -174 386 -256 q 368 -101 386 -135 z "},"ŗ":{"ha":526,"x_min":56,"x_max":522,"o":"m 58 608 q 81 659 64 632 q 117 699 99 686 q 263 575 225 682 q 442 699 318 699 q 522 689 474 699 q 481 528 522 599 q 418 536 460 533 q 282 446 333 536 l 282 0 q 197 -7 243 -7 q 110 0 151 -7 l 110 465 q 58 608 110 567 m 125 -101 q 211 -72 165 -72 q 283 -82 257 -72 q 297 -158 297 -110 q 247 -292 297 -233 q 110 -381 197 -351 q 56 -310 65 -367 q 143 -174 143 -256 q 125 -101 143 -135 z "},"Ř":{"ha":842,"x_min":118,"x_max":810,"o":"m 764 664 q 713 503 764 571 q 589 410 663 436 q 690 289 657 386 l 744 143 q 810 43 771 72 q 690 -11 771 -11 q 622 13 644 -11 q 579 94 599 38 l 517 265 q 470 342 499 315 q 385 368 442 368 l 293 368 l 293 0 q 205 -7 258 -7 q 118 0 151 -7 l 118 942 l 128 950 q 439 956 347 956 q 676 881 588 956 q 764 664 764 806 m 293 819 l 293 507 q 428 510 393 510 q 582 664 582 510 q 428 818 582 818 q 293 819 338 818 m 254 1254 l 414 1150 l 576 1267 q 621 1239 597 1260 q 650 1194 644 1218 l 488 1032 q 415 1024 453 1024 q 339 1031 378 1024 l 183 1181 q 212 1226 190 1206 q 254 1254 233 1246 z "},"ř":{"ha":526,"x_min":58,"x_max":522,"o":"m 58 608 q 81 659 64 632 q 117 699 99 686 q 263 575 225 682 q 442 699 318 699 q 522 689 474 699 q 481 528 522 599 q 418 536 460 533 q 282 446 333 536 l 282 0 q 197 -7 243 -7 q 110 0 151 -7 l 110 465 q 58 608 110 567 m 153 1022 l 282 899 l 421 1033 q 499 964 469 1015 l 350 776 q 300 765 319 765 q 207 775 242 765 l 75 950 q 109 995 86 975 q 153 1022 132 1015 z "},"Ś":{"ha":772,"x_min":33,"x_max":724,"o":"m 33 85 q 106 218 43 167 q 385 126 250 126 q 497 158 457 126 q 538 242 538 190 q 426 374 540 324 l 263 443 q 69 690 69 529 q 161 889 69 810 q 401 968 253 968 q 699 893 549 968 q 638 757 694 811 q 394 824 504 824 q 288 791 326 824 q 250 713 250 758 q 351 601 250 644 l 515 532 q 724 267 724 442 q 633 60 724 139 q 366 -19 543 -19 q 33 85 189 -19 m 244 1097 l 538 1274 q 583 1215 561 1256 q 610 1138 606 1175 l 294 1011 q 261 1047 275 1022 q 244 1097 247 1072 z "},"ś":{"ha":611,"x_min":36,"x_max":568,"o":"m 36 50 q 53 113 38 78 q 89 168 68 149 q 283 108 200 108 q 362 128 333 108 q 390 179 390 147 q 313 263 390 233 l 235 292 q 60 493 60 357 q 131 649 60 590 q 319 708 201 708 q 553 654 436 708 q 540 586 554 622 q 503 532 525 550 q 315 579 400 579 q 253 561 276 579 q 231 513 231 543 q 304 442 231 468 l 389 410 q 568 196 568 343 q 494 39 568 97 q 288 -19 419 -19 q 36 50 157 -19 m 193 817 l 399 1043 q 467 1001 435 1031 q 511 936 500 971 l 265 749 q 193 817 214 764 z "},"Š":{"ha":772,"x_min":33,"x_max":724,"o":"m 33 85 q 106 218 43 167 q 385 126 250 126 q 497 158 457 126 q 538 242 538 190 q 426 374 540 324 l 263 443 q 69 690 69 529 q 161 889 69 810 q 401 968 253 968 q 699 893 549 968 q 638 757 694 811 q 394 824 504 824 q 288 791 326 824 q 250 713 250 758 q 351 601 250 644 l 515 532 q 724 267 724 442 q 633 60 724 139 q 366 -19 543 -19 q 33 85 189 -19 m 233 1254 l 393 1150 l 556 1267 q 600 1239 576 1260 q 629 1194 624 1218 l 467 1032 q 394 1024 432 1024 q 318 1031 357 1024 l 163 1181 q 191 1226 169 1206 q 233 1254 213 1246 z "},"š":{"ha":611,"x_min":36,"x_max":568,"o":"m 36 50 q 53 113 38 78 q 89 168 68 149 q 283 108 200 108 q 362 128 333 108 q 390 179 390 147 q 313 263 390 233 l 235 292 q 60 493 60 357 q 131 649 60 590 q 319 708 201 708 q 553 654 436 708 q 540 586 554 622 q 503 532 525 550 q 315 579 400 579 q 253 561 276 579 q 231 513 231 543 q 304 442 231 468 l 389 410 q 568 196 568 343 q 494 39 568 97 q 288 -19 419 -19 q 36 50 157 -19 m 175 1022 l 304 899 l 443 1033 q 521 964 492 1015 l 372 776 q 322 765 342 765 q 229 775 264 765 l 97 950 q 131 995 108 975 q 175 1022 154 1015 z "},"Ť":{"ha":693,"x_min":13,"x_max":686,"o":"m 435 803 l 436 700 l 436 0 q 347 -7 400 -7 q 260 0 294 -7 l 260 803 l 176 801 l 19 801 q 13 874 13 833 q 19 949 13 915 l 676 949 q 686 876 686 914 q 663 819 686 838 q 590 801 640 801 l 519 801 l 436 803 l 435 803 m 183 1254 l 343 1150 l 506 1267 q 550 1239 526 1260 q 579 1194 574 1218 l 417 1032 q 344 1024 382 1024 q 268 1031 307 1024 l 113 1181 q 141 1226 119 1206 q 183 1254 163 1246 z "},"ť":{"ha":532,"x_min":14,"x_max":544,"o":"m 463 690 q 469 627 469 663 q 463 565 469 592 l 293 568 l 293 190 q 353 128 293 128 l 442 128 q 456 54 456 86 q 451 6 456 22 q 286 -7 364 -7 q 125 156 125 -7 l 125 567 l 21 565 q 14 627 14 592 q 21 690 14 663 l 125 688 l 125 793 q 146 876 125 851 q 218 900 167 900 l 285 900 l 293 890 l 293 688 l 463 690 m 476 775 q 431 769 458 769 q 378 782 403 769 l 393 1090 q 433 1096 413 1096 q 544 1068 507 1096 l 476 775 z "},"Ů":{"ha":932,"x_min":106,"x_max":826,"o":"m 826 949 l 826 340 q 731 74 826 168 q 466 -19 635 -19 q 201 74 297 -19 q 106 340 106 168 l 106 947 l 114 956 l 181 956 q 258 928 233 956 q 282 843 282 901 l 282 339 q 465 122 282 122 q 649 339 649 122 l 649 949 q 738 956 683 956 q 826 949 792 956 m 464 922 q 424 922 464 922 q 335 970 385 922 q 285 1088 285 1018 q 335 1206 285 1158 q 464 1254 385 1254 q 593 1206 543 1254 q 643 1088 643 1158 q 593 970 643 1018 q 464 922 543 922 m 414 1141 q 404 1131 414 1141 q 394 1089 394 1121 q 414 1036 394 1057 q 464 1015 433 1015 q 514 1036 494 1015 q 533 1089 533 1057 q 514 1141 533 1121 q 464 1161 494 1161 q 414 1141 433 1161 z "},"ů":{"ha":761,"x_min":67,"x_max":699,"o":"m 93 222 l 93 532 q 67 661 93 615 q 166 699 108 699 q 244 672 224 699 q 265 590 265 646 l 265 260 q 282 169 265 196 q 342 142 299 142 q 488 211 421 142 l 488 689 q 574 696 526 696 q 660 689 621 696 l 660 196 q 699 76 660 107 q 640 -11 686 22 q 506 88 542 1 q 282 -12 399 -12 q 141 52 189 -12 q 93 222 93 117 m 371 750 q 331 750 371 750 q 242 798 292 750 q 192 916 192 846 q 242 1034 192 986 q 371 1082 292 1082 q 500 1034 450 1082 q 550 916 550 986 q 500 798 550 846 q 371 750 450 750 m 321 969 q 311 959 321 969 q 301 917 301 949 q 321 864 301 885 q 371 843 340 843 q 421 864 401 843 q 440 917 440 885 q 421 969 440 949 q 371 990 401 990 q 321 969 340 990 z "},"Ÿ":{"ha":710,"x_min":0,"x_max":710,"o":"m 429 663 l 543 949 q 619 956 572 956 q 701 943 667 956 l 710 932 l 443 297 l 443 0 q 354 -7 408 -7 q 267 0 300 -7 l 267 303 l 0 928 q 101 960 57 960 q 167 943 146 960 q 204 886 188 926 l 297 658 q 357 475 332 569 l 365 475 q 429 663 383 549 m 438 1165 q 512 1185 469 1185 q 586 1165 554 1185 q 600 1103 600 1144 q 586 1042 600 1061 q 512 1022 558 1022 q 438 1042 465 1022 q 421 1103 421 1063 q 438 1165 421 1143 m 133 1165 q 206 1185 163 1185 q 282 1165 250 1185 q 297 1102 297 1144 q 282 1042 297 1060 q 207 1022 254 1022 q 133 1042 160 1022 q 119 1103 119 1061 q 133 1165 119 1144 z "},"Ź":{"ha":790,"x_min":61,"x_max":729,"o":"m 83 179 l 418 667 q 528 810 443 704 l 524 814 q 308 801 444 801 l 94 801 q 88 865 88 828 q 100 949 88 903 l 689 949 q 714 831 714 858 q 692 771 714 803 l 358 288 q 250 146 324 233 l 254 142 q 438 150 371 150 l 556 150 q 717 178 654 150 q 729 96 729 138 q 611 0 729 0 l 82 0 q 61 115 61 83 q 83 179 61 147 m 244 1097 l 538 1274 q 583 1215 561 1256 q 610 1138 606 1175 l 294 1011 q 261 1047 275 1022 q 244 1097 247 1072 z "},"ź":{"ha":621,"x_min":43,"x_max":581,"o":"m 68 156 l 271 429 q 382 561 301 471 l 378 568 q 199 558 300 558 l 67 558 q 61 613 61 581 q 71 689 61 644 l 543 689 q 567 590 567 618 q 549 536 567 563 l 343 261 q 238 129 296 194 l 242 124 q 363 131 314 131 l 422 131 q 564 151 519 131 q 581 79 581 107 q 481 0 581 0 l 64 0 q 43 91 43 63 q 68 156 43 119 m 199 817 l 404 1043 q 473 1001 440 1031 q 517 936 506 971 l 271 749 q 199 817 219 764 z "},"Ż":{"ha":790,"x_min":61,"x_max":729,"o":"m 83 179 l 418 667 q 528 810 443 704 l 524 814 q 308 801 444 801 l 94 801 q 88 865 88 828 q 100 949 88 903 l 689 949 q 714 831 714 858 q 692 771 714 803 l 358 288 q 250 146 324 233 l 254 142 q 438 150 371 150 l 556 150 q 717 178 654 150 q 729 96 729 138 q 611 0 729 0 l 82 0 q 61 115 61 83 q 83 179 61 147 m 310 1050 q 296 1121 296 1085 q 310 1189 296 1157 q 399 1207 343 1207 q 485 1189 456 1207 q 499 1121 499 1157 q 485 1050 499 1085 q 395 1032 451 1032 q 310 1050 339 1032 z "},"ż":{"ha":621,"x_min":43,"x_max":581,"o":"m 68 156 l 271 429 q 382 561 301 471 l 378 568 q 199 558 300 558 l 67 558 q 61 613 61 581 q 71 689 61 644 l 543 689 q 567 590 567 618 q 549 536 567 563 l 343 261 q 238 129 296 194 l 242 124 q 363 131 314 131 l 422 131 q 564 151 519 131 q 581 79 581 107 q 481 0 581 0 l 64 0 q 43 91 43 63 q 68 156 43 119 m 225 814 q 211 883 211 846 q 225 951 211 919 q 315 971 261 971 q 400 951 368 971 q 414 883 414 919 q 400 814 414 846 q 310 794 368 794 q 225 814 253 794 z "},"Ž":{"ha":790,"x_min":61,"x_max":729,"o":"m 83 179 l 418 667 q 528 810 443 704 l 524 814 q 308 801 444 801 l 94 801 q 88 865 88 828 q 100 949 88 903 l 689 949 q 714 831 714 858 q 692 771 714 803 l 358 288 q 250 146 324 233 l 254 142 q 438 150 371 150 l 556 150 q 717 178 654 150 q 729 96 729 138 q 611 0 729 0 l 82 0 q 61 115 61 83 q 83 179 61 147 m 233 1254 l 393 1150 l 556 1267 q 600 1239 576 1260 q 629 1194 624 1218 l 467 1032 q 394 1024 432 1024 q 318 1031 357 1024 l 163 1181 q 191 1226 169 1206 q 233 1254 213 1246 z "},"ž":{"ha":621,"x_min":43,"x_max":581,"o":"m 68 156 l 271 429 q 382 561 301 471 l 378 568 q 199 558 300 558 l 67 558 q 61 613 61 581 q 71 689 61 644 l 543 689 q 567 590 567 618 q 549 536 567 563 l 343 261 q 238 129 296 194 l 242 124 q 363 131 314 131 l 422 131 q 564 151 519 131 q 581 79 581 107 q 481 0 581 0 l 64 0 q 43 91 43 63 q 68 156 43 119 m 181 1022 l 310 899 l 449 1033 q 526 964 497 1015 l 378 776 q 328 765 347 765 q 235 775 269 765 l 103 950 q 137 995 114 975 q 181 1022 160 1015 z "},"ȷ":{"ha":400,"x_min":29,"x_max":304,"o":"m 304 554 l 304 31 q 287 -143 304 -90 q 244 -222 269 -196 q 78 -306 193 -279 q 29 -200 36 -268 q 111 -136 89 -171 q 133 -29 133 -101 l 133 490 q 71 565 133 565 l 42 565 q 35 625 35 589 q 42 688 35 661 q 156 693 97 693 l 179 693 q 271 656 238 693 q 304 554 304 619 z "},"ˆ":{"ha":553,"x_min":65,"x_max":488,"o":"m 410 761 l 281 886 l 143 753 q 65 822 92 774 l 213 1008 q 281 1019 244 1019 q 356 1010 317 1019 l 488 835 q 410 761 467 783 z "},"ˇ":{"ha":553,"x_min":67,"x_max":490,"o":"m 144 1022 l 274 899 l 413 1033 q 490 964 461 1015 l 342 776 q 292 765 311 765 q 199 775 233 765 l 67 950 q 101 995 78 975 q 144 1022 124 1015 z "},"˙":{"ha":553,"x_min":175,"x_max":378,"o":"m 189 814 q 175 883 175 846 q 189 951 175 919 q 278 971 225 971 q 364 951 332 971 q 378 883 378 919 q 364 814 378 846 q 274 794 332 794 q 189 814 217 794 z "},"˚":{"ha":553,"x_min":97,"x_max":456,"o":"m 276 750 q 237 750 276 750 q 147 798 197 750 q 97 916 97 846 q 147 1034 97 986 q 276 1082 197 1082 q 406 1034 356 1082 q 456 916 456 986 q 406 798 456 846 q 276 750 356 750 m 226 969 q 217 959 226 969 q 207 917 207 949 q 226 864 207 885 q 276 843 246 843 q 326 864 307 843 q 346 917 346 885 q 326 969 346 949 q 276 990 307 990 q 226 969 246 990 z "},"˜":{"ha":553,"x_min":25,"x_max":528,"o":"m 286 794 l 217 829 q 171 842 194 842 q 121 807 147 842 l 107 788 q 58 803 82 789 q 25 840 33 818 l 36 868 q 97 948 58 918 q 179 978 136 978 q 267 956 222 978 l 336 919 q 383 907 361 907 q 432 942 406 907 l 446 961 q 494 945 471 960 q 528 908 518 931 l 517 881 q 455 800 494 829 q 372 771 415 771 q 286 794 328 771 z "},"μ":{"ha":768,"x_min":71,"x_max":706,"o":"m 667 689 l 667 196 q 706 76 667 107 q 646 -11 690 21 q 518 76 556 1 q 354 -12 457 -12 q 257 17 301 -12 l 257 -187 q 240 -275 257 -246 q 169 -304 224 -304 q 71 -269 114 -304 q 97 -137 97 -225 l 97 689 q 181 696 136 696 q 268 689 226 696 l 268 247 q 299 164 271 194 q 374 133 326 133 q 494 203 444 133 l 494 689 q 579 696 533 696 q 667 689 625 696 z "},"ẞ":{"ha":888,"x_min":14,"x_max":846,"o":"m 140 0 l 140 526 l 21 525 q 14 592 14 557 q 21 660 14 628 l 140 658 l 140 699 q 226 901 140 831 q 456 971 311 971 q 689 894 601 971 q 776 689 776 818 q 754 582 776 640 l 751 582 l 754 581 q 676 542 703 569 q 650 485 650 515 q 693 418 650 456 l 744 371 q 846 183 846 274 q 772 37 846 93 q 592 -19 699 -19 q 401 21 485 -19 q 418 86 403 50 q 454 142 433 122 q 558 113 508 113 q 636 133 608 113 q 664 189 664 153 q 614 271 664 225 l 557 321 q 468 476 468 401 q 503 570 468 525 q 597 640 538 615 q 601 685 601 663 q 563 795 601 751 q 456 839 525 839 q 315 681 315 839 l 315 0 q 229 -7 274 -7 q 140 0 185 -7 z "},"–":{"ha":750,"x_min":82,"x_max":669,"o":"m 663 300 l 89 300 q 82 368 82 329 q 89 436 82 407 l 663 436 q 669 368 669 407 q 663 300 669 329 z "},"—":{"ha":1118,"x_min":100,"x_max":1018,"o":"m 1011 300 l 107 300 q 100 368 100 329 q 107 436 100 407 l 1011 436 q 1018 368 1018 407 q 1011 300 1018 329 z "},"‘":{"ha":339,"x_min":57,"x_max":306,"o":"m 74 713 q 57 811 57 751 q 110 974 57 903 q 263 1078 163 1046 q 294 1047 283 1068 q 304 1013 304 1025 q 304 996 304 1000 q 232 949 264 979 q 199 878 200 918 q 258 861 246 871 q 272 786 272 836 q 258 713 272 736 q 163 690 219 690 q 74 713 106 690 z "},"’":{"ha":339,"x_min":33,"x_max":282,"o":"m 265 1056 q 282 957 282 1011 q 229 794 282 865 q 76 690 176 722 q 44 721 54 700 q 35 753 35 742 q 35 771 35 765 q 140 889 136 814 q 79 907 90 899 q 65 985 65 938 q 79 1056 65 1032 q 176 1076 118 1076 q 265 1056 233 1076 z "},"‚":{"ha":339,"x_min":35,"x_max":283,"o":"m 268 154 q 283 56 283 114 q 231 -109 283 -37 q 78 -212 179 -181 q 47 -181 57 -201 q 36 -147 36 -160 q 36 -131 36 -135 q 109 -83 76 -114 q 143 -12 142 -53 q 82 6 97 -7 q 68 79 68 29 q 82 154 68 129 q 177 175 118 175 q 268 154 236 175 z "},"“":{"ha":631,"x_min":54,"x_max":594,"o":"m 71 713 q 54 811 54 751 q 107 974 54 903 q 260 1078 160 1046 q 291 1047 281 1068 q 301 1013 301 1025 q 301 996 301 1000 q 229 949 261 979 q 196 878 197 918 q 256 861 243 871 q 269 786 269 836 q 256 713 269 736 q 160 690 217 690 q 71 713 103 690 m 363 713 q 346 811 346 751 q 399 974 346 903 q 551 1078 451 1046 q 583 1047 572 1068 q 593 1013 593 1025 q 593 996 593 1000 q 521 949 553 979 q 488 878 489 918 q 547 861 535 871 q 561 786 561 836 q 547 713 561 736 q 451 690 508 690 q 363 713 394 690 z "},"”":{"ha":631,"x_min":38,"x_max":578,"o":"m 269 1056 q 286 957 286 1011 q 233 794 286 865 q 81 690 181 722 q 49 721 58 700 q 39 753 39 742 q 39 771 39 765 q 144 889 140 814 q 83 907 94 899 q 69 985 69 938 q 83 1056 69 1032 q 180 1076 122 1076 q 269 1056 238 1076 m 561 1056 q 578 957 578 1011 q 525 794 578 865 q 372 690 472 722 q 340 721 350 700 q 331 753 331 742 q 331 771 331 765 q 436 889 432 814 q 375 907 386 899 q 361 985 361 938 q 375 1056 361 1032 q 472 1076 414 1076 q 561 1056 529 1076 z "},"„":{"ha":631,"x_min":35,"x_max":575,"o":"m 268 154 q 283 56 283 114 q 231 -109 283 -37 q 78 -212 179 -181 q 47 -181 57 -201 q 36 -147 36 -160 q 36 -131 36 -135 q 109 -83 76 -114 q 143 -12 142 -53 q 82 6 97 -7 q 68 79 68 29 q 82 154 68 129 q 177 175 118 175 q 268 154 236 175 m 560 154 q 575 56 575 114 q 523 -109 575 -37 q 369 -212 471 -181 q 338 -181 349 -201 q 328 -147 328 -160 q 328 -131 328 -135 q 401 -83 368 -114 q 435 -12 433 -53 q 374 6 389 -7 q 360 79 360 29 q 374 154 360 129 q 469 175 410 175 q 560 154 528 175 z "},"•":{"ha":629,"x_min":144,"x_max":488,"o":"m 167 249 q 144 374 144 297 q 167 503 144 450 q 317 538 225 538 q 465 503 410 538 q 488 374 488 450 q 465 249 488 297 q 317 214 417 214 q 167 249 218 214 z "},"‹":{"ha":469,"x_min":40,"x_max":422,"o":"m 415 575 l 232 357 l 422 133 q 385 80 414 107 q 326 44 356 53 l 49 303 q 40 354 40 324 q 49 406 40 385 l 322 665 q 379 630 351 657 q 415 575 407 603 z "},"›":{"ha":469,"x_min":47,"x_max":431,"o":"m 54 135 l 238 353 l 47 576 q 86 630 57 603 q 144 665 115 657 l 421 407 q 431 356 431 386 q 421 304 431 325 l 149 44 q 92 80 119 53 q 54 135 64 107 z "},"⁄":{"ha":346,"x_min":-172,"x_max":518,"o":"m -172 0 l 351 949 q 440 957 386 957 q 518 949 494 957 l -6 0 q -94 -8 -40 -8 q -172 0 -149 -8 z "},"⁴":{"ha":583,"x_min":51,"x_max":528,"o":"m 304 564 l 240 563 l 82 563 q 51 643 51 614 q 71 715 51 672 l 232 1069 q 258 1069 240 1069 q 313 1062 276 1069 q 369 1038 349 1054 l 278 838 q 193 682 231 731 l 196 679 q 304 685 244 685 l 304 749 q 331 825 304 797 q 401 853 357 853 l 439 853 l 443 847 l 443 685 l 522 685 q 528 632 528 664 q 517 564 528 600 l 443 564 l 443 461 q 375 454 417 454 q 304 461 333 454 l 304 564 z "},"€":{"ha":783,"x_min":21,"x_max":761,"o":"m 686 699 q 481 778 578 778 q 314 611 347 778 l 575 611 q 581 555 581 582 q 575 500 581 528 l 300 500 l 300 397 l 575 397 q 581 341 581 368 q 575 286 581 314 l 314 286 q 481 122 347 122 q 686 201 578 122 q 761 97 749 165 q 457 -19 622 -19 q 139 286 194 -19 l 28 286 q 21 341 21 313 q 28 397 21 369 l 128 397 q 126 448 126 414 q 128 500 126 482 l 28 500 q 21 555 21 526 q 28 611 21 583 l 139 611 q 457 919 192 919 q 761 803 622 919 q 734 744 756 774 q 686 699 713 714 z "}}}
